<svg width="71" height="86" viewBox="0 0 71 86" fill="none" xmlns="http://www.w3.org/2000/svg">
<g clip-path="url(#clip0_15_92)">
<path d="M31.9712 0.000808716V0.180667C31.9958 0.176043 32.0212 0.177252 32.0453 0.184194C32.0694 0.191136 32.0914 0.203614 32.1097 0.220608C32.128 0.237601 32.1419 0.258626 32.1503 0.281963C32.1588 0.3053 32.1616 0.330286 32.1584 0.354875V4.78306C32.1569 4.89865 32.0953 4.95727 31.9712 4.95727L31.9691 5.13148H33.4285L33.4306 4.95962C33.2785 4.95821 33.2039 4.90242 33.2039 4.78118V1.54279L36.2128 4.64605L36.369 4.87016L36.2435 4.95939V5.13124H37.8389V4.95939C37.7122 4.95939 37.651 4.90147 37.6496 4.78306L37.6524 0.353933C37.6524 0.236225 37.7127 0.179725 37.8396 0.179725V0.00222121H36.3494V0.180667C36.5214 0.180667 36.6071 0.237873 36.6071 0.354875V3.45366L33.7759 0.548387C33.643 0.421733 33.5787 0.329215 33.5797 0.276481L33.6568 0.176429V0.00222121L31.9707 0.000808716H31.9712ZM29.3762 0.0455379L29.2045 0.0803795L29.1538 0.265417C29.0762 0.330578 28.98 0.370165 28.8786 0.378652L24.4656 1.23392L24.5008 1.40366L24.6284 1.42531L24.7077 1.54491L25.5661 5.88858L25.5397 6.02983L25.423 6.09292L25.4583 6.26713L29.9708 5.39914L30.2132 5.37301L30.3382 5.51662L30.5094 5.48389L30.2475 4.17168L30.0772 4.20205L30.0208 4.40239L29.7953 4.51563L26.5619 5.13807L26.3026 3.81974L28.1992 3.45201C28.3014 3.42906 28.4077 3.43132 28.5088 3.45861C28.5905 3.48513 28.6448 3.57294 28.6716 3.72204L28.8478 3.68296L28.5528 2.1923L28.379 2.22714C28.4071 2.37192 28.3895 2.47362 28.3261 2.52094C28.2392 2.57866 28.1396 2.6152 28.0356 2.62759L26.139 2.99743L25.9057 1.8114L29.0421 1.20661C29.1384 1.17972 29.2401 1.17818 29.3372 1.20214L29.4517 1.34574L29.6255 1.30878L29.376 0.0457733L29.3762 0.0455379ZM45.1495 1.30972C44.8691 1.31445 44.5915 1.36595 44.3285 1.46204C44.1119 1.54374 43.9181 1.675 43.7627 1.84506C43.6246 1.99868 43.523 2.18097 43.4655 2.37852C43.3849 2.621 43.3735 2.88076 43.4324 3.12926C43.4913 3.33233 43.6002 3.5178 43.7494 3.66907C43.9115 3.8296 44.0998 3.96203 44.3063 4.0608C44.5282 4.16961 44.7561 4.2662 44.9888 4.35013C45.2226 4.43511 45.4538 4.51351 45.6822 4.58743C45.8883 4.65136 46.0899 4.72915 46.2853 4.82026C46.432 4.88515 46.5655 4.97584 46.6794 5.08792C46.724 5.13658 46.7544 5.19622 46.7676 5.26057C46.7808 5.32491 46.7761 5.39157 46.7542 5.45353C46.7371 5.52232 46.7028 5.58572 46.6543 5.63784C46.6057 5.68995 46.5447 5.72907 46.4768 5.75156C46.3209 5.80836 46.1564 5.83853 45.9903 5.84079C45.8125 5.84576 45.6346 5.83187 45.4598 5.79935C45.3177 5.77556 45.1767 5.74579 45.0371 5.71013C44.8713 5.661 44.7101 5.59799 44.5552 5.5218C44.3854 5.43988 44.222 5.34545 44.0666 5.2393C43.9256 5.14822 43.7944 5.04323 43.6749 4.92596L43.4777 4.63428L43.4798 4.46948L43.3984 4.39886L42.5555 5.39326L42.6676 5.50414L42.8129 5.46271L43.0396 5.59972C43.1475 5.69374 43.2607 5.78168 43.3786 5.86315C43.5571 5.9882 43.7473 6.09604 43.9465 6.1852C44.2342 6.31143 44.5316 6.41479 44.8359 6.4943C45.1178 6.57075 45.4046 6.62816 45.6943 6.66616C45.996 6.70933 46.3026 6.70639 46.6034 6.65745C46.8865 6.61538 47.1561 6.50963 47.3914 6.34834C47.6363 6.17245 47.809 5.91522 47.8778 5.62373C47.9558 5.38644 47.9641 5.13215 47.9016 4.89041C47.8438 4.6869 47.7348 4.5012 47.5847 4.3506C47.4226 4.18998 47.2353 4.05627 47.0301 3.95463C46.8093 3.84402 46.5822 3.74593 46.3501 3.66083C46.1148 3.57867 45.8836 3.49816 45.6567 3.42141C45.4523 3.35325 45.253 3.27105 45.0602 3.1754C44.9121 3.10469 44.7796 3.00554 44.6707 2.88372C44.6262 2.83187 44.5963 2.76945 44.5838 2.70265C44.5712 2.63584 44.5766 2.56696 44.5992 2.50282L44.7928 2.2674C44.9014 2.21383 45.0196 2.18184 45.1407 2.17323C45.2846 2.16185 45.4293 2.16619 45.5722 2.18618C45.7207 2.20445 45.8678 2.23285 46.0124 2.27117C46.1983 2.32254 46.3789 2.39103 46.5518 2.47574C46.7173 2.55569 46.8756 2.64958 47.0249 2.75636C47.1565 2.84376 47.2774 2.94607 47.3849 3.06122L47.5742 3.35055L47.5897 3.58338L47.6754 3.654L48.6615 2.65725L48.5691 2.55272L48.3643 2.5572L48.0738 2.39617C47.9417 2.29528 47.8052 2.20016 47.6647 2.11108C47.4727 1.98793 47.274 1.87531 47.0694 1.77373C46.7958 1.64007 46.5096 1.53292 46.2151 1.4538C45.8693 1.35563 45.5109 1.30727 45.1512 1.3102L45.1495 1.30972ZM20.7807 2.55743C20.4373 2.57942 20.0996 2.65581 19.7806 2.78367L16.7394 3.97582L16.8077 4.14061C16.9444 4.08623 17.0392 4.11165 17.0828 4.219L18.7372 8.33879C18.7793 8.44732 18.7341 8.52712 18.592 8.58245L18.6579 8.74559L21.7022 7.54873C22.0224 7.42638 22.32 7.25284 22.5833 7.03505C22.8274 6.8339 23.0249 6.58305 23.1621 6.29961C23.2996 6.00444 23.3695 5.68291 23.3669 5.35795C23.36 4.97056 23.2785 4.58802 23.1269 4.23077C22.9899 3.86595 22.7838 3.53036 22.5194 3.24202C22.2989 3.00837 22.0289 2.82577 21.7287 2.70726C21.4285 2.58875 21.1055 2.53727 20.7829 2.55649L20.7807 2.55743ZM50.7979 2.70975L50.2057 3.94592L50.3664 4.02219L50.5183 3.8873L50.6988 3.91767L52.1692 4.60979L50.4876 8.11491L50.3819 8.21072L50.2497 8.19989L50.1749 8.35433L51.5484 9.00055L51.6232 8.84164C51.4908 8.78326 51.4536 8.6978 51.5041 8.58927L53.1857 5.08157L54.656 5.77369L54.7903 5.88905L54.7882 6.08915L54.9449 6.16519L55.5366 4.93137L55.3766 4.85745L55.2199 4.99023L55.0442 4.96198L51.0841 3.10572L50.95 2.99036L50.9545 2.78579L50.7957 2.70975H50.7979ZM20.845 3.46873C20.948 3.47571 21.0495 3.49703 21.1465 3.53206C21.3465 3.61011 21.5231 3.73742 21.6594 3.9019C21.8374 4.12393 21.9786 4.37258 22.0775 4.63851C22.1915 4.89991 22.2628 5.17755 22.2887 5.46106C22.3042 5.67399 22.2625 5.8872 22.1677 6.07903C22.0681 6.26736 21.922 6.42778 21.7429 6.54539C21.5164 6.69463 21.2735 6.81799 21.0188 6.91311L19.5968 7.47505L18.3074 4.26185L19.7297 3.70697C19.981 3.60383 20.2431 3.52867 20.5112 3.48285C20.6218 3.4656 20.734 3.46047 20.8457 3.46755L20.845 3.46873ZM57.7863 6.61107L57.6861 6.75703L57.7763 6.88768L57.7561 7.04L57.6084 7.16406L57.3703 7.2926L53.71 9.42312L53.4576 9.54718L53.2152 9.54294L53.1183 9.6842L54.2779 10.4632L54.377 10.3151L54.2817 10.1192C54.353 10.0442 54.4373 9.98232 54.5306 9.93656L55.2151 9.5599L57.2094 10.8874L57.1124 11.6949C57.1053 11.7845 57.0783 11.8715 57.0332 11.9496L56.9341 11.9887L56.8372 11.9583L56.7381 12.1019L58.1754 13.0617L58.2766 12.9205L58.1733 12.7321L58.1494 12.532L58.6952 8.1062L58.7238 7.87761L58.7855 7.72953L58.9219 7.64902L59.0693 7.68386L59.1645 7.5379L57.7835 6.61295L57.7863 6.61107ZM12.1064 6.63061L10.6648 7.51413L10.7601 7.66432C10.9268 7.5598 11.0444 7.55603 11.1034 7.65773L13.4675 11.4204C13.5279 11.5179 13.4758 11.6214 13.3067 11.7264L13.3991 11.8745L17.3921 9.42618L17.6078 9.3153L17.7745 9.40946L17.9264 9.3153L17.2156 8.18247L17.0637 8.27664L17.0813 8.48545L16.9147 8.66437L14.1287 10.3749L12.0604 7.07107C11.9985 6.97361 12.045 6.87921 12.2014 6.78175L12.1061 6.63155L12.1064 6.63061ZM34.775 6.68499C27.9368 6.68471 21.252 8.68916 15.566 12.4449C9.87999 16.2006 5.44809 21.5389 2.83071 27.7848C0.21333 34.0307 -0.471981 40.9036 0.861435 47.5345C2.19485 54.1655 5.48711 60.2566 10.3219 65.0377C15.1567 69.8188 21.3169 73.0752 28.0236 74.395C34.7302 75.7149 41.6822 75.0389 48.0003 72.4527C54.3184 69.8665 59.7189 65.486 63.519 59.8654C67.3192 54.2447 69.3482 47.6362 69.3495 40.8755C69.3501 31.8088 65.7079 23.1132 59.224 16.7013C52.7402 10.2894 43.9457 6.68649 34.775 6.68499ZM57.6651 8.13445L57.3237 10.0931L55.8688 9.12485L57.6651 8.13445ZM61.7845 9.09966L60.8468 10.1051L60.9811 10.2228L61.1683 10.1423L61.329 10.2228L62.5265 11.313L59.8646 14.1691L59.7324 14.228L59.6134 14.1778L59.4943 14.3085L60.6104 15.329L60.7313 15.1962L60.6918 14.922L63.353 12.069L64.5481 13.1592L64.6433 13.3136L64.575 13.5019L64.7093 13.6239L65.6425 12.6163L65.5127 12.4967L65.3234 12.5793L65.1648 12.4967L61.9429 9.56296L61.8505 9.41276L61.916 9.22113L61.7841 9.09918L61.7845 9.09966ZM8.99159 9.93209C8.8053 9.91638 8.61784 9.92072 8.4325 9.94504C8.05471 9.99289 7.68742 10.1017 7.34526 10.2671C6.66682 10.5915 6.09857 11.1041 5.70988 11.7424C5.51051 12.0629 5.36572 12.4135 5.28127 12.7804C5.19995 13.1458 5.19825 13.5242 5.27627 13.8904C5.36638 14.2883 5.56511 14.6541 5.85084 14.9481C6.1209 15.2569 6.47091 15.4871 6.86331 15.6141C7.22529 15.7242 7.60712 15.7553 7.98246 15.7054C8.35882 15.6592 8.72353 15.5456 9.05874 15.3702C9.39091 15.1998 9.69944 14.9876 9.97668 14.7391C10.2517 14.4911 10.4919 14.2079 10.691 13.897C10.8982 13.5826 11.0465 13.234 11.1292 12.8677C11.2125 12.5038 11.2148 12.1262 11.1358 11.7613C11.0358 11.3667 10.8385 11.0029 10.5615 10.7022C10.2844 10.4015 9.93634 10.1734 9.54831 10.0383C9.36689 9.98373 9.18024 9.94799 8.99135 9.93162L8.99159 9.93209ZM8.76038 10.9331C8.8837 10.9452 9.0054 10.9699 9.12351 11.007C9.36861 11.0892 9.58732 11.2341 9.75737 11.427C9.93621 11.612 10.0614 11.8413 10.1198 12.0906C10.1734 12.3282 10.1764 12.5743 10.1286 12.8131C10.0773 13.0596 9.98582 13.2962 9.85786 13.5137C9.73074 13.7321 9.57008 13.9296 9.38163 14.0992C9.19493 14.2703 8.98164 14.4107 8.7499 14.5149C8.51931 14.6199 8.27341 14.6882 8.02127 14.7174C7.77513 14.7409 7.52672 14.7158 7.29049 14.6435C7.04581 14.56 6.82626 14.4171 6.65201 14.2279C6.47776 14.0387 6.3544 13.8092 6.29326 13.5606C6.23966 13.3215 6.23666 13.0741 6.28445 12.8338C6.33414 12.5876 6.42568 12.3514 6.55519 12.1354C6.68122 11.9178 6.84086 11.7211 7.02833 11.5522C7.21619 11.3812 7.43102 11.2415 7.66433 11.1388C7.89278 11.0304 8.1385 10.9619 8.39059 10.9364C8.51347 10.9235 8.63735 10.9228 8.76038 10.9343V10.9331ZM66.9207 14.3713L66.7842 14.478L66.8216 14.5976L66.7502 14.7216L63.2006 17.4245L63.0642 17.4593L62.9542 17.3917L62.8113 17.5005L65.6177 21.1L65.7475 21.3001L65.6749 21.4786L65.7806 21.6179L66.8521 20.802L66.7464 20.6607L66.5395 20.6998L66.3371 20.5541L64.3252 17.9709L65.4039 17.1549L66.5838 18.6651L66.7223 18.9394C66.7309 19.0243 66.6771 19.1124 66.5573 19.207L66.663 19.3419L67.8846 18.4149L67.7746 18.2736C67.6555 18.3678 67.5588 18.396 67.4888 18.3584L67.2576 18.1538L66.077 16.6389L67.0455 15.9034L68.9956 18.4061L69.1321 18.6651L69.0528 18.8299L69.1607 18.9693L70.1929 18.1837L70.0829 18.0443L69.8957 18.0813L69.6669 17.8941L66.9207 14.3713ZM2.59937 15.2308L2.47388 15.2831L2.47174 15.4051L2.42102 15.5357L2.22076 15.6989C2.10671 15.7824 1.96979 15.8872 1.80906 16.023C1.62642 16.1746 1.45226 16.3358 1.28735 16.5061C1.0937 16.7002 0.914932 16.9082 0.752541 17.1285C0.497232 17.4672 0.295392 17.8421 0.153917 18.2406C0.0330444 18.5885 -0.0170481 18.9565 0.00652319 19.3236C0.0338527 19.6703 0.137207 20.0069 0.309407 20.3102C0.500948 20.6368 0.762392 20.918 1.07543 21.1341C1.3786 21.3631 1.72869 21.5238 2.10123 21.605C2.44349 21.678 2.79808 21.6727 3.13799 21.5897C3.49656 21.4987 3.83327 21.3382 4.12855 21.1174C4.46616 20.8607 4.76311 20.5557 5.00958 20.2123C5.15054 20.0239 5.28603 19.8245 5.42128 19.6225C5.55758 19.4158 5.6761 19.1982 5.7756 18.9718C5.87541 18.7399 5.95639 18.5006 6.01776 18.2559C6.08131 18.0052 6.11677 17.7483 6.12348 17.4899L5.99585 17.3941L5.85727 17.4659L5.72083 17.4398L4.82051 16.7891L4.71265 16.6521C4.7262 16.5677 4.7569 16.487 4.80289 16.4148L4.66002 16.3081L3.20275 18.2776L3.04655 18.417L2.82153 18.3633L2.71581 18.5045L3.7328 19.2423L3.84067 19.103L3.68661 18.881L3.76137 18.683L4.50525 17.6733L5.19197 18.1677C5.11031 18.4156 5.01329 18.6583 4.90147 18.8944C4.75933 19.2 4.58443 19.4897 4.37976 19.7584C4.23422 19.954 4.06156 20.1283 3.86686 20.2763C3.67849 20.4252 3.46241 20.5361 3.23085 20.6028C2.99389 20.6663 2.74536 20.6752 2.50436 20.6289C2.22213 20.5738 1.95686 20.4542 1.72977 20.2796C1.49248 20.1194 1.2967 19.9061 1.15829 19.6571C1.0432 19.4429 0.979182 19.2054 0.971131 18.9629C0.965476 18.7252 1.00656 18.4887 1.09209 18.2665C1.17573 18.0374 1.29208 17.8212 1.4376 17.6246C1.56125 17.4579 1.695 17.2988 1.83811 17.1481C1.98059 16.9984 2.13421 16.8595 2.29768 16.7326C2.43091 16.6295 2.57847 16.5459 2.73581 16.4844C2.78526 16.4573 2.84119 16.4437 2.89774 16.4453C2.9543 16.4468 3.0094 16.4633 3.05727 16.4931L3.14323 16.5779L3.3061 16.4517L2.59961 15.2308H2.59937ZM65.9718 61.1719L65.9146 61.2002L65.7211 61.2764C65.7136 61.3987 65.6783 61.5177 65.6177 61.6246C65.5038 61.7166 65.3797 61.7955 65.2479 61.86C64.6825 62.148 64.1411 62.4798 63.6287 62.8523C63.216 63.1696 62.8441 63.5357 62.5215 63.9425C61.7524 64.8757 61.3638 65.7684 61.3638 66.6234L61.3769 66.8497C61.4013 67.1921 61.4996 67.5254 61.6651 67.8272C61.8306 68.129 62.0595 68.3922 62.3365 68.5993C62.6609 68.8674 63.0511 69.046 63.4678 69.1172C63.588 69.1352 63.7093 69.1446 63.8309 69.1455C64.1444 69.1479 64.4545 69.0802 64.7379 68.9475C65.0079 68.831 65.2617 68.6807 65.4929 68.5002C65.7084 68.326 66.0492 68.0159 66.5099 67.5536L67.2076 66.868C67.5046 66.5523 67.8352 66.2692 68.1937 66.0236C68.3007 65.9568 68.4243 65.9207 68.5508 65.9191L68.8842 66.0474C69.0231 66.1633 69.1211 66.32 69.1637 66.4947L69.1968 66.7927C69.197 66.9062 69.1845 67.0193 69.1595 67.1301C69.0319 67.5908 68.8044 68.0185 68.4927 68.3834C68.1414 68.7983 67.7289 69.1586 67.2691 69.452C66.8954 69.7287 66.4673 69.9252 66.0123 70.0287L65.8473 70.0462C65.7148 70.0514 65.5851 70.0071 65.4841 69.9221L65.4203 69.8698L65.1627 69.9525L65.101 69.9786L66.2125 72.1352L66.4656 72.0286C66.4777 71.9223 66.5029 71.8177 66.5404 71.7174C66.5433 71.716 66.6864 71.627 66.9147 71.5128C67.9955 71.0357 68.9492 70.3167 69.7007 69.4127C70.0893 68.9481 70.4108 68.4325 70.656 67.8806C70.8693 67.4254 70.987 66.9323 71.002 66.4309C71.004 66.278 70.988 66.1253 70.9544 65.976C70.8461 65.3852 70.5237 64.8536 70.0474 64.4809C69.7514 64.2389 69.4013 64.0703 69.0261 63.9891C68.8547 63.9478 68.6787 63.928 68.5023 63.9303C68.3095 63.9311 68.1176 63.9553 67.9308 64.0021C67.5798 64.1104 67.2468 64.269 66.9424 64.4729C66.5439 64.7549 66.1712 65.071 65.8287 65.4174L65.1243 66.1182C64.8296 66.4355 64.5094 66.7288 64.1669 66.9952C64.0341 67.0934 63.8746 67.1502 63.709 67.1583C63.5826 67.1579 63.4607 67.1123 63.3656 67.03C63.2253 66.9115 63.135 66.7454 63.1125 66.5644L63.0949 66.3838C63.099 66.2169 63.1294 66.0517 63.1851 65.8941C63.3398 65.5355 63.5466 65.2012 63.7992 64.9018C64.3687 64.1771 65.1516 63.6448 66.0399 63.3785C66.1476 63.3433 66.2599 63.3235 66.3733 63.3196L66.5692 63.3719L66.6376 63.4437L66.8995 63.3719L66.9566 63.3483L65.977 61.1743L65.9718 61.1719ZM4.75979 63.2165L4.5793 63.4171L4.5462 63.4562L4.57692 63.5018C4.67622 63.6162 4.7336 63.7604 4.73979 63.911C4.71704 64.1421 4.65991 64.3687 4.57025 64.5833L2.16909 70.9031C2.1088 71.0787 2.0322 71.2485 1.94026 71.4102L1.70215 71.5255L1.42474 71.4314L1.37402 71.4097L1.20901 71.5969L1.16496 71.6439L3.32657 73.559L3.51135 73.3653L3.54874 73.3283L3.51802 73.2848C3.43337 73.1798 3.38134 73.0528 3.36824 72.9192L3.43206 72.7544C3.56768 72.6639 3.71313 72.5888 3.86567 72.5303L8.49893 70.2328L6.72473 74.9271C6.67772 75.112 6.60274 75.2888 6.50233 75.4516L6.28231 75.5624C6.173 75.5571 6.06754 75.5208 5.97847 75.4579L5.92775 75.4252L5.76107 75.6189L5.71916 75.6733L7.91364 77.6122L8.08985 77.4121L8.1339 77.3664L8.0958 77.3302C8.00881 77.2405 7.95524 77.1243 7.94388 77.0006L8.01532 76.8309C8.17202 76.703 8.34612 76.5975 8.5325 76.5175L14.6118 73.4531C14.8125 73.3416 15.0271 73.2567 15.2502 73.2007L15.301 73.1942C15.4399 73.205 15.5746 73.2467 15.695 73.3161L15.7391 73.3314L15.9108 73.1508L15.9527 73.0986L13.6415 71.0552L13.4589 71.2531L13.4258 71.2967L13.4589 71.3438C13.5436 71.4352 13.5974 71.5504 13.6129 71.6734L13.5601 71.8257C13.4365 71.9344 13.297 72.0239 13.1462 72.0912L9.03874 74.1996L10.7117 69.8364C10.7478 69.719 10.8012 69.6075 10.8703 69.5056L11.0751 69.4143C11.1837 69.4184 11.2896 69.4491 11.3832 69.5035L11.4228 69.5271L11.5923 69.3387L11.643 69.2886L9.19971 67.1341L9.02136 67.3299L8.98183 67.377L9.01493 67.4184C9.09244 67.503 9.14094 67.6096 9.15351 67.7231L9.08589 67.8902C8.98944 67.9729 8.87923 68.0385 8.76014 68.084L4.47906 70.1754L6.18492 65.8438C6.23089 65.7185 6.29628 65.601 6.37874 65.4956L6.56138 65.4129L6.83879 65.4956L6.8895 65.5217L7.05452 65.3303L7.09857 65.2846L4.75884 63.2172L4.75979 63.2165ZM59.9222 68.0781L59.7636 68.0847C59.3921 68.1114 59.0301 68.2136 58.7004 68.3851C58.2326 68.6322 57.7897 68.923 57.3777 69.2533L53.0569 72.5491L53.2219 72.7579L53.2457 72.7949L53.2933 72.7732L53.5552 72.7123L53.6081 72.7165L53.826 72.8775L58.2766 78.5923L58.3757 78.8208V78.8338C58.3525 78.9366 58.3041 79.0323 58.2347 79.1123L58.2083 79.1558L58.3645 79.3538L58.4064 79.4061L60.6428 77.7L60.4761 77.4867L60.4454 77.4432L60.3992 77.4667L60.1372 77.5298L60.0932 77.5256L59.8775 77.3733L58.1737 75.1884L59.9413 73.8368L62.816 74.7856C63.0087 74.8276 63.1921 74.9035 63.3575 75.0097L63.3794 75.0685L63.2385 75.2927L63.2011 75.3275L63.3618 75.5394L63.3992 75.5938L65.9789 73.6221L65.8123 73.4154L65.777 73.3719L65.7175 73.4001C65.591 73.4913 65.4383 73.5402 65.2817 73.5395H65.2377C64.9051 73.4891 64.5775 73.4112 64.2581 73.3067L61.5767 72.4761C62.1429 71.8662 62.4284 71.2463 62.4284 70.6307C62.4141 70.0806 62.2107 69.5518 61.8517 69.1313C61.606 68.8056 61.294 68.5343 60.9359 68.3349C60.6264 68.1627 60.2764 68.0741 59.9213 68.0781H59.9222ZM59.4953 69.8995C59.6475 69.9055 59.796 69.9474 59.9285 70.0215C60.0611 70.0957 60.1738 70.2001 60.2572 70.3261C60.4081 70.5037 60.4956 70.7255 60.5061 70.9572L60.4401 71.2772C60.3721 71.4261 60.2766 71.5612 60.1584 71.6755C59.9459 71.8852 59.717 72.078 59.4738 72.2523L57.2222 73.9628L55.9235 72.2979L58.1752 70.5897C58.4107 70.4015 58.6571 70.227 58.9133 70.0674C59.0524 69.9873 59.2062 69.9356 59.3657 69.915L59.4979 69.8997L59.4953 69.8995ZM17.0966 72.9135L16.982 73.153L16.9623 73.1944L16.9954 73.2335C17.0435 73.2725 17.0832 73.3208 17.1118 73.3754C17.1405 73.4301 17.1576 73.4899 17.1621 73.5513L17.1268 73.6883C17.0372 73.826 16.9222 73.9458 16.7877 74.0414L11.0246 78.5489C10.8879 78.6746 10.73 78.7755 10.5579 78.847L10.4017 78.8682L10.1793 78.8359L10.1222 78.8225L10.0031 79.0443L9.97239 79.1052L12.6557 80.4087L12.7812 80.1651L12.8031 80.1194L12.7612 80.0846C12.7022 80.0483 12.6519 79.9997 12.6139 79.9422C12.5759 79.8847 12.5511 79.8197 12.5412 79.7517L12.565 79.6408C12.6353 79.5322 12.7257 79.4377 12.8315 79.3623L13.8837 78.5398L17.2933 80.2284V81.5277C17.2987 81.6541 17.2831 81.7806 17.2471 81.902C17.2225 81.9529 17.1834 81.9955 17.1344 82.0246C17.0855 82.0536 17.029 82.0677 16.972 82.0651L16.7696 82.0348L16.7235 82.0173L16.6068 82.2502L16.5849 82.3045L19.552 83.7495L19.6687 83.508L19.6885 83.4536L19.6511 83.4209C19.5294 83.3415 19.4361 83.2262 19.3846 83.0913C19.326 82.8788 19.3008 82.6586 19.3099 82.4385L19.2813 75.1048C19.2745 74.9708 19.2979 74.837 19.3496 74.7131C19.3779 74.6627 19.4205 74.6216 19.4721 74.5949C19.5237 74.5682 19.5822 74.5571 19.6401 74.5629L19.7787 74.5758L19.9454 74.3604L19.974 74.3039L17.0987 72.914L17.0966 72.9135ZM51.0119 73.7448C50.196 73.7605 49.3918 73.9396 48.6479 74.2714C46.7968 75.0777 45.7331 76.2878 45.4938 77.8839C45.457 78.1054 45.4386 78.3296 45.4388 78.5541C45.4471 79.7583 45.9323 80.9114 46.7904 81.7661C47.6111 82.5748 48.7222 83.0294 49.8809 83.0306C50.6885 83.0149 51.4845 82.8372 52.2206 82.5082C54.0631 81.7353 55.1228 80.5194 55.3792 78.887C55.4179 78.6502 55.4385 78.4109 55.4409 78.1711C55.4285 77.2587 55.1376 76.3713 54.6061 75.6252C54.0746 74.8792 53.3275 74.3094 52.4628 73.9906C51.9974 73.8258 51.5065 73.7425 51.0122 73.7446L51.0119 73.7448ZM50.5735 75.4539C50.8657 75.4551 51.1559 75.5006 51.4341 75.5888C52.2273 75.8438 52.8059 76.4019 53.1862 77.2711C53.3454 77.6223 53.4286 78.0026 53.4305 78.3874V78.4202C53.4375 78.8347 53.3471 79.2452 53.1664 79.6194C52.8495 80.2796 52.2862 80.7929 51.5948 81.0514C51.1932 81.2277 50.7598 81.3224 50.3204 81.3299C50.0232 81.331 49.7279 81.2832 49.4465 81.1887C49.0525 81.0573 48.6923 80.8421 48.3915 80.5583C48.0907 80.2744 47.8565 79.9287 47.7054 79.5457C47.5345 79.1614 47.4446 78.7467 47.4414 78.3269C47.4391 77.9231 47.5302 77.5241 47.7078 77.1604C48.0288 76.5037 48.5907 75.9925 49.2794 75.7308C49.6878 75.5533 50.1282 75.4593 50.5743 75.4544L50.5735 75.4539ZM22.2999 75.4909L22.2339 75.752C22.4101 75.8932 22.4918 75.9619 22.5197 76.0217L22.5504 76.1611L22.5416 76.2807L21.0493 83.3536L20.926 83.5777C20.8337 83.63 20.7284 83.6556 20.6221 83.6516L20.5164 83.9018L20.5033 83.9607L23.2638 84.5417L23.3233 84.2762C23.2206 84.1997 23.1262 84.113 23.0416 84.0172L23.0085 83.8649L23.0195 83.7627L23.5971 81.0512L25.7828 81.5039L26.9208 84.2764C27.0069 84.4466 27.0671 84.6285 27.0991 84.8162V84.8379C27.0865 84.8866 27.0277 84.9257 26.8527 84.9271H26.802L26.6898 85.1794L26.681 85.2447L29.8617 85.8953L29.9167 85.6406L29.9322 85.5797L29.8667 85.5651C29.7025 85.5267 29.5578 85.4309 29.4596 85.2953C29.2756 85.0128 29.12 84.7132 28.9952 84.4007L27.8859 81.8481H28.0509C29.4834 81.8563 30.3756 81.187 30.6463 79.8765C30.6887 79.6694 30.7108 79.4589 30.7123 79.2477C30.7124 79.0563 30.694 78.8654 30.6573 78.6775C30.5746 78.2828 30.3772 77.9205 30.0894 77.6351C29.8258 77.3715 29.5115 77.1628 29.165 77.0213C28.6715 76.8378 28.1635 76.6951 27.6461 76.5947L22.3008 75.4916L22.2999 75.4909ZM17.4223 75.7129L17.3321 78.8074L14.9878 77.6628L17.4223 75.7129ZM43.7453 76.1176L40.9851 76.7181L41.0358 76.9837C41.1673 77.0081 41.2942 77.0521 41.4123 77.1143L41.5356 77.3318L43.1115 84.3891L43.1224 84.5087L43.0938 84.6481C43.0308 84.7353 42.9447 84.8038 42.845 84.8461L42.8517 85.1159L42.8714 85.179L45.636 84.5761L45.57 84.3171C45.442 84.2968 45.3193 84.2517 45.209 84.1843C45.1382 84.127 45.0918 84.0454 45.0793 83.9557L43.5036 76.9013L43.4906 76.7817L43.5213 76.6489C43.5834 76.5639 43.6668 76.4963 43.7634 76.453L43.7613 76.1832L43.7458 76.118L43.7453 76.1176ZM37.4545 77.184C37.2879 77.184 37.1005 77.1859 36.9131 77.1969L31.5247 77.4123L31.4676 77.6734C31.5914 77.7218 31.7066 77.7893 31.8088 77.8735C31.8647 77.9423 31.8929 78.0291 31.8881 78.1172L32.1786 85.3292V85.3574L32.1103 85.5794C32.0315 85.6514 31.9363 85.7037 31.8329 85.7317L31.7888 85.9994L34.56 85.9558L34.6076 85.6816C34.4875 85.6404 34.3757 85.5785 34.2774 85.4989C34.2159 85.4316 34.1829 85.3436 34.185 85.2529L34.0793 82.4985L36.3114 82.4114L38.1008 84.8183C38.2275 84.9659 38.3307 85.1317 38.4068 85.3101V85.3167C38.4068 85.3793 38.3496 85.4426 38.1427 85.4885L38.1008 85.7475L41.2815 85.6952L41.3432 85.4276C41.1491 85.3901 40.9657 85.3106 40.8063 85.1947C40.5597 84.9644 40.3356 84.7116 40.1372 84.4395L38.4292 82.2327C39.8829 81.9305 40.6367 81.1049 40.6324 79.7997L40.6282 79.6603C40.6136 79.256 40.5194 78.8583 40.3507 78.4896C40.1729 78.1257 39.8915 77.821 39.5412 77.6127C39.2184 77.4226 38.8608 77.2976 38.4889 77.245C38.1459 77.2008 37.8002 77.1804 37.4543 77.184H37.4545ZM31.7733 77.4691L31.5862 77.4757V77.4736L31.7733 77.4691ZM24.3467 77.4886L27.1225 78.0654C27.421 78.1157 27.7159 78.1854 28.0052 78.2742C28.1572 78.3346 28.2978 78.4199 28.4211 78.5266C28.5171 78.6024 28.5933 78.6999 28.6435 78.8108C28.6936 78.9217 28.7163 79.0428 28.7095 79.1641L28.6876 79.4536C28.5876 79.8743 28.3878 80.1185 28.0625 80.2131C27.9389 80.2505 27.8108 80.271 27.6816 80.2741L27.5804 80.2719C27.2807 80.2368 26.9831 80.186 26.6888 80.1196L23.9088 79.5452L24.3467 77.4886ZM37.3329 78.7269C37.4469 78.726 37.5608 78.7318 37.6741 78.7443C37.8372 78.7605 37.996 78.8054 38.1429 78.8771C38.2959 78.9588 38.4221 79.0819 38.5067 79.232C38.5913 79.3822 38.6308 79.553 38.6206 79.7246V79.7898C38.6358 79.9501 38.6059 80.1114 38.534 80.2559C38.4621 80.4003 38.3512 80.5223 38.2134 80.6081C38.0711 80.6894 37.9153 80.7452 37.7534 80.7729C37.4566 80.8153 37.1574 80.84 36.8576 80.8468L34.0202 80.9577L33.93 78.786L34.0357 78.7818L36.774 78.7448C36.9602 78.7349 37.1466 78.7291 37.3331 78.7274L37.3329 78.7269ZM38.1715 85.6755V85.6821H38.1698L38.1715 85.6755Z" fill="#006BB6"/>
<path d="M58.1665 61.0885C63.5823 55.2898 66.5853 47.6842 66.5751 39.7915C66.5754 35.6614 65.7527 31.5717 64.1541 27.7561C62.5554 23.9404 60.212 20.4734 57.2578 17.5533C54.3036 14.6332 50.7965 12.3171 46.9368 10.7373C43.077 9.15744 38.9403 8.34488 34.7628 8.34599C30.5855 8.345 26.4488 9.15765 22.5892 10.7375C18.7295 12.3174 15.2225 14.6335 12.2684 17.5537C9.31434 20.4738 6.97106 23.9407 5.37244 27.7563C3.77381 31.5719 2.95116 35.6615 2.95148 39.7915C2.95135 43.9217 3.77414 48.0114 5.37285 51.8272C6.97157 55.6429 9.31489 59.11 12.269 62.0303C15.2231 64.9506 18.7302 67.267 22.5898 68.8472C26.4495 70.4274 30.5862 71.2404 34.7638 71.2399C39.0107 71.2446 43.2154 70.4058 47.1282 68.7732C51.0409 67.1405 54.5821 64.7474 57.5415 61.7359C57.7883 61.5596 58.0003 61.3401 58.167 61.0882" fill="#FDB927"/>
<path d="M34.7631 10.3108C30.4855 10.311 26.2581 11.2216 22.3681 12.9806C18.4781 14.7396 15.0166 17.3059 12.219 20.5051C9.42135 23.7043 7.35303 27.4614 6.1546 31.5211C4.95616 35.5808 4.65568 39.848 5.27358 44.0328C7.374 41.9157 11.6075 36.9467 15.4561 28.2467C15.5038 25.7007 15.5354 24.101 15.5354 24.101L16.3036 23.9183L16.3274 23.161H17.6056L17.6294 25.3372C17.7575 25.4958 17.9106 25.6861 18.1092 25.9269C18.0895 25.062 18.0785 24.5615 18.0785 24.5615L18.9436 23.8216L19.8679 24.2328C19.8679 24.2328 19.9084 25.6959 19.9846 28.0802C25.773 34.4758 40.5497 48.6429 61.2806 53.2324C63.6123 48.7403 64.7375 43.7313 64.5482 38.6857C64.3589 33.6401 62.8614 28.7273 60.1995 24.4184C57.5375 20.1095 53.8003 16.5491 49.3464 14.0787C44.8924 11.6084 39.8712 10.3109 34.7642 10.3108H34.7631ZM17.6318 25.8193C17.698 31.5658 17.8968 45.5486 18.3559 56.6118C18.58 56.5866 18.8007 56.5586 19.0317 56.5334C18.6081 46.0501 18.239 31.3735 18.1192 26.345C17.9559 26.1682 17.7961 25.998 17.6328 25.8184L17.6318 25.8193ZM19.9915 28.359C20.0494 30.1667 20.1284 32.4715 20.227 35.0702L26.7378 55.7744C27.3985 55.7173 28.0721 55.6614 28.7585 55.6068L20.1427 28.5151C20.0934 28.4621 20.0422 28.4112 19.993 28.3583L19.9915 28.359ZM15.4142 29.4765C14.6673 31.127 13.8627 32.7514 13.0019 34.3468L9.27774 55.0733C9.66087 55.6972 10.0733 56.2999 10.5014 56.8905L15.4147 29.4765H15.4142ZM21.1766 29.5919L29.4002 55.5562C30.0031 55.5091 30.6125 55.462 31.2337 55.4192L23.7407 32.1857C22.8968 31.3556 22.04 30.4831 21.1764 29.5916L21.1766 29.5919ZM24.8436 33.2523L31.8828 55.3737C32.5068 55.3306 33.14 55.2885 33.7823 55.2475L27.5422 35.7934C26.6321 34.957 25.7325 34.1094 24.8436 33.2509V33.2523ZM15.3633 33.359L11.0229 57.5426C11.5201 57.472 12.0973 57.3889 12.7552 57.3011L15.1104 44.1768L15.2006 44.1922C15.2483 40.3857 15.3085 36.6056 15.3635 33.359H15.3633ZM12.0535 36.0618C11.4019 37.2111 10.7282 38.3479 10.0328 39.4718L7.74689 52.2328C8.0793 52.9375 8.43886 53.6258 8.82556 54.2979L12.052 36.0616L12.0535 36.0618ZM28.5051 36.6602L34.4328 55.2061C35.0231 55.1699 35.6234 55.1355 36.2268 55.1016L31.0044 38.8487C30.1845 38.1495 29.3511 37.4197 28.5042 36.6593L28.5051 36.6602ZM20.3297 37.6608C20.4099 39.6955 20.5035 41.8495 20.6047 44.05L24.4038 55.9842C24.956 55.934 25.5218 55.8799 26.0966 55.8297L20.3289 37.6619L20.3297 37.6608ZM31.8811 39.5954L36.8732 55.0639C37.5381 55.0291 38.2105 54.9933 38.8896 54.9639L34.6735 41.8629C33.7312 41.1208 32.8 40.3649 31.8804 39.5954H31.8811ZM9.19297 40.808C8.68165 41.6085 8.19375 42.3535 7.72927 43.0431L6.40868 48.8727C6.67918 49.6985 6.98016 50.5119 7.32209 51.3057L9.19321 40.8078L9.19297 40.808ZM35.6 42.5859L39.5444 54.9359C40.1573 54.9109 40.775 54.8819 41.3977 54.8596L38.0145 44.3963C37.2017 43.8035 36.3969 43.1999 35.6005 42.5857L35.6 42.5859ZM6.69061 44.5634C6.3451 45.0614 5.99434 45.5558 5.63837 46.0465C5.73695 46.4938 5.84434 46.9411 5.96412 47.3828L6.69037 44.5627L6.69061 44.5634ZM38.946 45.0705L42.0496 54.8351C42.6864 54.8116 43.3259 54.7915 43.9712 54.772L41.4267 46.8093L41.517 46.8375L41.4113 46.7669L41.4091 46.7627C40.5797 46.2104 39.7585 45.6459 38.946 45.0695V45.0705ZM20.7273 46.6224C20.8907 49.9135 21.0757 53.2223 21.2843 56.2933C22.0803 56.2111 22.9018 56.1285 23.7583 56.0451L20.7273 46.6224ZM42.2323 47.31L44.6206 54.7569C45.2883 54.7389 45.9604 54.7237 46.6369 54.7113L44.8273 48.9422C43.9947 48.4399 43.1295 47.8959 42.2318 47.31H42.2323ZM15.1625 47.4541L13.4126 57.2142C13.9396 57.1459 14.4982 57.073 15.1054 56.9967C15.104 54.1917 15.1261 50.8846 15.1625 47.4541ZM45.6428 49.4273L47.2937 54.7007C47.9177 54.6895 48.5447 54.6817 49.1748 54.6771L47.9216 50.725C47.1543 50.3052 46.3942 49.8729 45.6416 49.4281L45.6428 49.4273ZM48.7221 51.1553L49.8358 54.6677C50.4823 54.6649 51.1345 54.6656 51.7883 54.6656L51.0378 52.3239C50.2585 51.949 49.4864 51.5594 48.7221 51.1553ZM51.8148 52.6916L52.451 54.6654C53.9245 54.6724 55.408 54.6935 56.9016 54.7285C55.1659 54.152 53.4671 53.4718 51.8148 52.6916ZM44.4541 59.3572C39.061 59.3664 32.7336 59.462 26.3785 59.7489C43.2719 59.4356 52.357 59.898 56.2459 60.2016C56.4754 59.9634 56.705 59.728 56.9259 59.4857C54.3067 59.4252 49.8475 59.348 44.4548 59.3574L44.4541 59.3572ZM29.3435 60.6755C26.5576 60.6958 23.9345 60.7386 21.6198 60.7888C21.8029 62.9866 21.9991 64.9321 22.2074 66.5122C27.5495 68.9658 33.5073 69.7988 39.3281 68.9059C45.1488 68.0131 50.5713 65.4345 54.9103 61.496C47.5342 60.7551 37.7035 60.6157 29.3435 60.676V60.6755ZM19.2236 60.8453C18.9981 60.8509 18.7712 60.8556 18.5545 60.8627C18.6259 62.2138 18.7038 63.4899 18.7857 64.6557C19.0124 64.797 19.2381 64.9415 19.4682 65.0778C19.3865 63.9401 19.3039 62.504 19.2236 60.8453ZM15.134 60.9649C14.7451 60.9773 14.4049 60.9908 14.0905 61.0018C14.4356 61.3314 14.7885 61.6513 15.1492 61.9616C15.1421 61.6511 15.1382 61.3173 15.134 60.9649Z" fill="#006BB6"/>
</g>
<defs>
<clipPath id="clip0_15_92">
<rect width="71" height="86" fill="white"/>
</clipPath>
</defs>
</svg>
