<svg width="89" height="56" viewBox="0 0 89 56" fill="none" xmlns="http://www.w3.org/2000/svg">
<g clip-path="url(#clip0_15_14)">
<path d="M42.0096 55.3409C56.755 55.3409 68.7078 43.0964 68.7078 27.9911C68.7078 12.8859 56.755 0.64299 42.0096 0.64299C27.2676 0.64299 15.3148 12.8886 15.3148 27.9911C15.3148 43.0937 27.2679 55.3409 42.0096 55.3409Z" fill="#FDB827"/>
<path d="M54.1793 30.7897C51.6859 33.8431 50.2717 34.8882 47.7385 34.8882C46.8761 34.8882 46.4271 34.6921 46.6696 34.271L49.6734 28.1732H50.8188C52.0981 28.1732 51.9214 29.261 51.5732 30.7335C51.512 30.9393 51.6662 30.9505 51.8179 30.772L54.6743 25.7064C54.8138 25.3867 54.4529 25.3247 54.277 25.5659C52.8464 27.5261 51.339 27.3802 50.7058 27.3802H50.1888L53.3991 21.2001H54.6927C56.3214 21.3019 57.0804 22.6979 56.6088 26.0637H57.2867L59.6452 21.3714C59.836 20.9751 59.4343 20.6116 58.9895 20.6116L42.9783 20.6162C42.0517 20.6162 42.0098 21.3344 42.8995 21.3344C43.6191 21.3344 43.5812 22.3768 42.9342 22.8811L36.1373 28.3277L37.5105 34.758C37.6105 35.2433 37.9207 35.4745 38.4515 35.4745H51.6907C51.8742 35.4893 52.0582 35.4552 52.2245 35.3757C52.3908 35.2962 52.5335 35.174 52.6383 35.0214L55.0343 30.843C55.3661 30.2416 54.5958 30.2803 54.1793 30.7897ZM44.9572 27.8535L43.7912 27.8469C43.772 27.8468 43.7529 27.8505 43.7351 27.8578C43.7173 27.8652 43.7011 27.876 43.6874 27.8897C43.6738 27.9034 43.6629 27.9197 43.6555 27.9376C43.6481 27.9556 43.6443 27.9748 43.6443 27.9942C43.6445 28.0336 43.66 28.0713 43.6875 28.0991C43.715 28.1269 43.7523 28.1427 43.7912 28.1429L44.9726 28.1317C45.3732 28.1317 45.74 28.1832 45.6374 28.3622L42.5757 34.2618C42.1962 34.9647 41.3917 34.7848 41.2633 34.2228L39.7471 26.3164L45.0802 22.1443C45.6091 21.6854 46.6293 20.9371 47.1498 20.9452L48.3118 20.9386C49.0185 20.934 49.2715 21.2681 49.1031 21.7004L48.8981 22.0987C48.7648 22.3224 48.3475 22.3494 47.9917 22.3494L47.3217 22.3529C47.3018 22.3521 47.2819 22.3554 47.2633 22.3626C47.2447 22.3697 47.2277 22.3806 47.2134 22.3945C47.199 22.4085 47.1876 22.4252 47.1798 22.4437C47.172 22.4622 47.168 22.4821 47.168 22.5022C47.168 22.5223 47.172 22.5421 47.1798 22.5606C47.1876 22.5791 47.199 22.5958 47.2134 22.6098C47.2277 22.6237 47.2447 22.6346 47.2633 22.6417C47.2819 22.6489 47.3018 22.6522 47.3217 22.6514H47.9827C48.2677 22.6514 48.6269 22.6587 48.4955 22.8751L46.0228 27.6323C45.9081 27.8183 45.3946 27.8518 44.959 27.8518" fill="#552582"/>
<path d="M33.9669 34.7565C33.8178 34.7527 33.6734 34.7027 33.5534 34.6132C33.4335 34.5237 33.3437 34.399 33.2965 34.2562C33.1809 33.855 33.1926 33.4273 33.3298 33.0331L39.5075 21.9785C39.6077 21.7741 39.8583 21.3479 40.1652 21.3479C40.7109 21.3479 40.9466 20.6244 40.0223 20.6244H35.0744C34.1498 20.6244 34.1406 21.3351 35.0266 21.3351C35.0959 21.3322 35.1649 21.3469 35.2271 21.3778C35.2894 21.4088 35.343 21.455 35.383 21.5122C35.423 21.5694 35.4482 21.6358 35.4562 21.7054C35.4642 21.7749 35.4548 21.8454 35.4289 21.9104L34.063 24.4107C33.8919 24.6848 33.5133 24.706 33.1147 24.706L31.9362 24.7016C31.8976 24.7031 31.861 24.7197 31.8342 24.7478C31.8074 24.7759 31.7924 24.8134 31.7924 24.8524C31.7924 24.8914 31.8074 24.9289 31.8342 24.9571C31.861 24.9852 31.8976 25.0017 31.9362 25.0032H33.1044C33.4203 25.0032 33.6725 25.0995 33.4903 25.4694L28.9298 33.8509C28.6009 34.3122 27.9473 34.4151 27.9846 33.5311L29.606 21.2554C29.6698 20.8722 29.57 20.6122 29.1635 20.6122L26.7195 20.6167C26.5975 20.6154 26.4772 20.6454 26.3699 20.7038C26.2625 20.7623 26.1716 20.8472 26.1056 20.9508L25.2321 22.0595C25.117 22.1744 24.8719 22.1737 24.6002 22.1737L22.5467 22.1701C22.5083 22.1716 22.4719 22.1881 22.4453 22.216C22.4186 22.244 22.4037 22.2813 22.4037 22.3201C22.4037 22.3588 22.4186 22.3961 22.4453 22.4241C22.4719 22.452 22.5083 22.4685 22.5467 22.47H24.2227C24.52 22.47 24.8675 22.5392 24.7414 22.6806L22.3895 25.6677C22.258 25.7485 22.1044 25.785 21.951 25.7721H21.2868C21.2675 25.7721 21.2483 25.7759 21.2305 25.7834C21.2126 25.7909 21.1963 25.8018 21.1827 25.8156C21.169 25.8295 21.1581 25.8458 21.1507 25.8639C21.1433 25.8819 21.1395 25.9013 21.1395 25.9208C21.1395 25.9403 21.1433 25.9596 21.1507 25.9777C21.1581 25.9957 21.169 26.0121 21.1827 26.0259C21.1963 26.0397 21.2126 26.0507 21.2305 26.0582C21.2483 26.0656 21.2675 26.0695 21.2868 26.0695L21.8407 26.0717C22.0126 26.0717 22.0139 26.1562 21.9455 26.235L19.7337 29.0384C19.571 29.1435 19.3776 29.1896 19.1855 29.1689L17.2329 29.1667C17.213 29.1659 17.1931 29.1692 17.1745 29.1764C17.1559 29.1835 17.1389 29.1944 17.1245 29.2083C17.1102 29.2223 17.0988 29.239 17.091 29.2575C17.0832 29.276 17.0792 29.2959 17.0792 29.316C17.0792 29.3361 17.0832 29.3559 17.091 29.3744C17.0988 29.3929 17.1102 29.4096 17.1245 29.4236C17.1389 29.4375 17.1559 29.4484 17.1745 29.4555C17.1931 29.4627 17.213 29.466 17.2329 29.4652H18.9084C19.1632 29.4652 19.3594 29.5112 19.2254 29.684L16.0829 33.6604C15.4924 34.4195 12.6478 34.8058 12.0936 34.8058L22.7212 14.7372C22.8123 14.5723 22.9426 14.4327 23.1002 14.331C23.2579 14.2293 23.4381 14.1686 23.6247 14.1544H25.8806C26.946 14.1544 26.9146 13.4393 25.9903 13.4393H14.6457C13.7222 13.4393 13.6849 14.1544 14.7478 14.1544H16.8494C17.4453 14.1544 17.6374 14.518 17.4852 14.8156L17.1833 15.3687C17.0846 15.5477 16.9421 15.6196 16.3666 15.6196L12.6542 15.6174C12.615 15.6174 12.5775 15.6331 12.5498 15.6611C12.5221 15.689 12.5065 15.7269 12.5065 15.7665C12.5065 15.806 12.5221 15.8439 12.5498 15.8718C12.5775 15.8998 12.615 15.9155 12.6542 15.9155H16.3574C16.5582 15.9155 16.8592 15.9684 16.67 16.3328L16.1491 17.3052C16.0777 17.3859 15.988 17.4478 15.8877 17.4858C15.7874 17.5238 15.6794 17.5367 15.5731 17.5234L13.891 17.5199C13.8517 17.5199 13.8139 17.5356 13.7861 17.5637C13.7583 17.5918 13.7427 17.6298 13.7427 17.6695C13.7427 17.7092 13.7583 17.7473 13.7861 17.7754C13.8139 17.8035 13.8517 17.8192 13.891 17.8192L15.565 17.8214C15.8044 17.8214 15.811 17.9792 15.6724 18.2031L14.4762 20.4472C14.374 20.6381 14.18 20.6638 13.8 20.6638L13.1302 20.6607C13.1103 20.6599 13.0904 20.6632 13.0718 20.6704C13.0532 20.6775 13.0362 20.6884 13.0219 20.7023C13.0075 20.7162 12.9961 20.733 12.9883 20.7515C12.9805 20.7699 12.9765 20.7898 12.9765 20.8099C12.9765 20.83 12.9805 20.8499 12.9883 20.8684C12.9961 20.8869 13.0075 20.9036 13.0219 20.9176C13.0362 20.9315 13.0532 20.9424 13.0718 20.9495C13.0904 20.9567 13.1103 20.9599 13.1302 20.9592L13.7912 20.9605C14.0432 20.9605 14.1096 21.1023 13.9965 21.3451L13.0151 23.1862C12.8688 23.4477 12.6605 23.5522 12.0078 23.5522L8.29652 23.5486C8.25811 23.5501 8.22177 23.5666 8.19512 23.5945C8.16847 23.6225 8.15358 23.6597 8.15358 23.6985C8.15358 23.7373 8.16847 23.7746 8.19512 23.8025C8.22177 23.8305 8.25811 23.8469 8.29652 23.8484H11.9986C12.4167 23.8551 12.5709 24.0396 12.4075 24.3425L10.4891 27.9772C10.3757 28.1383 10.0633 28.1626 9.53004 28.1626L5.81896 28.1582C5.79906 28.1574 5.77921 28.1607 5.7606 28.1679C5.74199 28.175 5.725 28.1859 5.71065 28.1998C5.6963 28.2138 5.68488 28.2305 5.67709 28.249C5.66929 28.2675 5.66527 28.2873 5.66527 28.3074C5.66527 28.3275 5.66929 28.3474 5.67709 28.3659C5.68488 28.3844 5.6963 28.4011 5.71065 28.4151C5.725 28.429 5.74199 28.4399 5.7606 28.447C5.77921 28.4542 5.79906 28.4575 5.81896 28.4567H9.52215C9.96504 28.4567 10.2358 28.4757 10.1008 28.7111L8.99813 30.8094C8.79445 31.1291 8.22571 31.1291 8.0036 31.1291L6.82555 31.1253C6.7863 31.1253 6.74866 31.1411 6.7209 31.1691C6.69315 31.1971 6.67756 31.2351 6.67756 31.2747C6.67756 31.3143 6.69315 31.3523 6.7209 31.3803C6.74866 31.4083 6.7863 31.424 6.82555 31.424H7.99286C8.40637 31.424 8.62365 31.496 8.51556 31.7197L7.0402 34.5171C6.90755 34.7667 6.33092 34.7784 5.88693 34.7784L0.14841 34.7731C0.108984 34.7731 0.0711735 34.7889 0.0432956 34.817C0.0154176 34.8452 -0.000244141 34.8833 -0.000244141 34.9231C-0.000244141 34.9629 0.0154176 35.0011 0.0432956 35.0292C0.0711735 35.0573 0.108984 35.0731 0.14841 35.0731L5.87838 35.0745C6.25856 35.0745 6.73807 35.1211 6.55916 35.4285L5.62163 37.2141C5.53262 37.3612 5.21141 37.3743 4.74813 37.3743L3.57205 37.3716C3.53289 37.3716 3.49533 37.3873 3.46764 37.4153C3.43994 37.4432 3.42438 37.4811 3.42438 37.5206C3.42438 37.5602 3.43994 37.5981 3.46764 37.626C3.49533 37.6539 3.53289 37.6697 3.57205 37.6697H4.74023C5.02373 37.6697 5.37212 37.7028 5.25022 37.9214L4.6613 39.0616C4.47187 39.3455 4.28243 39.5975 3.82814 39.5975H0.94715C-0.118203 39.5975 -0.0807102 40.3129 0.843662 40.3129L17.7534 40.3235C18.248 40.3235 18.2636 40.2571 18.4964 39.888L21.0047 35.476H33.8218C34.7477 35.4778 34.5094 34.774 33.9672 34.7556M23.9128 33.4424C23.7874 34.1704 23.0619 34.651 22.1485 34.8961L21.2077 35.132L21.9812 33.7263C22.1847 33.3437 21.7383 33.1187 21.2518 33.6871C17.9796 37.5358 16.9351 39.3769 11.8868 39.3906L10.5301 39.3933C10.1198 39.3933 9.66927 39.2315 9.94794 38.8359L11.7331 35.478H18.517C19.4427 35.478 19.205 34.7738 18.6611 34.7556C18.4487 34.7389 18.2438 34.6695 18.0643 34.5537C17.8849 34.438 17.7365 34.2793 17.6323 34.0918C17.5488 33.9406 17.5063 33.7698 17.5093 33.5967C17.5123 33.4237 17.5607 33.2544 17.6494 33.1063L20.2472 29.6216H24.5664L23.9128 33.4424ZM24.8901 29.0368H20.6782L26.0061 21.944L24.8894 29.0368H24.8901ZM88.9884 31.2298C88.9186 30.8795 88.7941 31.0924 88.565 31.5345C88.4948 31.6672 88.2725 31.6719 88.0502 31.6719L87.374 31.6743C87.3349 31.6743 87.2973 31.69 87.2697 31.7179C87.242 31.7458 87.2264 31.7837 87.2264 31.8232C87.2264 31.8627 87.242 31.9006 87.2697 31.9285C87.2973 31.9564 87.3349 31.9721 87.374 31.9721H88.041C88.2924 31.9721 88.2979 32.1427 88.1789 32.3994C87.7577 33.2915 87.2249 34.1253 86.5935 34.8806C86.444 35.0289 86.2439 35.1136 86.0344 35.1172L85.3525 35.1214C85.3142 35.1228 85.2781 35.1392 85.2515 35.167C85.225 35.1949 85.2102 35.232 85.2102 35.2706C85.2102 35.3092 85.225 35.3463 85.2515 35.3742C85.2781 35.402 85.3142 35.4184 85.3525 35.4198H86.0194C86.3551 35.4198 86.0148 35.6274 85.9578 35.7037C85.1464 36.8388 84.1821 37.8541 83.0926 38.7202C82.9902 38.803 82.5006 38.7731 82.1566 38.7707L81.4853 38.7731C81.4456 38.7731 81.4075 38.789 81.3794 38.8174C81.3513 38.8457 81.3355 38.8841 81.3355 38.9242C81.3355 38.9643 81.3513 39.0027 81.3794 39.0311C81.4075 39.0594 81.4456 39.0753 81.4853 39.0753H82.149C82.6548 39.0753 82.2737 39.3685 82.1987 39.4311C80.3544 40.9813 77.6111 41.4791 76.3545 41.3212C72.2788 40.8061 71.438 37.6831 71.1363 36.435C71.0747 36.1737 70.8787 35.6385 70.8136 35.3083C70.6879 34.6558 72.5268 34.4704 73.0353 34.8138C73.804 35.3333 75.6005 35.8672 77.0149 35.8714C78.3217 35.8768 80.9977 34.9178 81.7714 32.6523C82.564 30.3343 80.5749 27.7608 79.692 26.8733C78.5714 25.74 77.5098 23.9369 77.9582 22.6133C78.2943 21.6143 78.8571 21.1619 80.0645 21.1619C81.6241 21.1619 82.7574 22.1741 82.7574 23.6092C82.7574 23.7387 82.6815 23.8898 82.5783 23.8898L82.0275 23.892C81.9879 23.8924 81.9501 23.9085 81.9221 23.9368C81.8942 23.9652 81.8784 24.0034 81.8782 24.0434C81.8784 24.0832 81.8943 24.1213 81.9222 24.1493C81.9502 24.1774 81.9881 24.1932 82.0275 24.1932L82.5443 24.1918C82.691 24.1918 82.7824 24.3036 82.7438 24.4837C82.6443 24.9634 82.6103 25.301 82.507 25.7832C82.4447 26.062 82.851 26.2551 82.9916 26.052L85.443 21.6351C85.6211 21.3019 85.226 21.2127 84.9359 21.3163C84.2641 21.5493 83.1729 21.7146 82.7857 21.432C81.8692 20.7682 81.033 20.3434 79.7558 20.3434C77.5753 20.3434 76.0504 20.8837 75.0712 22.6937C74.9947 22.8355 74.7807 22.8335 74.5977 22.8335H74.1791C74.14 22.8335 74.1026 22.8492 74.0749 22.877C74.0473 22.9049 74.0318 22.9427 74.0318 22.9822C74.0318 23.0216 74.0473 23.0594 74.0749 23.0873C74.1026 23.1152 74.14 23.1309 74.1791 23.1309L74.5354 23.1273C74.6878 23.1273 74.7893 23.1716 74.7134 23.3499C74.6466 23.5122 74.5851 23.6825 74.5288 23.8608C74.2815 24.6452 74.362 25.7442 74.7507 26.7235C74.7755 26.7899 74.6922 26.8193 74.542 26.8193H73.8752C73.8556 26.8194 73.8362 26.8233 73.8181 26.8309C73.8 26.8385 73.7835 26.8497 73.7697 26.8637C73.7559 26.8778 73.7449 26.8944 73.7375 26.9127C73.73 26.931 73.7263 26.9507 73.7263 26.9705C73.7264 26.9901 73.7303 27.0096 73.7378 27.0278C73.7453 27.0459 73.7564 27.0624 73.7703 27.0762C73.7841 27.0901 73.8006 27.101 73.8187 27.1083C73.8368 27.1157 73.8561 27.1194 73.8757 27.1191H74.5411C74.8432 27.1205 74.9156 27.1521 75.0406 27.3293C75.3857 27.8181 75.7369 28.1805 76.1791 28.7499C76.3199 28.9269 75.7246 28.9771 75.408 28.9751L72.7675 28.9738C72.7476 28.973 72.7276 28.9763 72.7089 28.9835C72.6902 28.9907 72.6732 29.0016 72.6588 29.0156C72.6444 29.0296 72.6329 29.0464 72.6251 29.0649C72.6172 29.0835 72.6132 29.1035 72.6132 29.1237C72.6132 29.1439 72.6172 29.1638 72.6251 29.1824C72.6329 29.201 72.6444 29.2178 72.6588 29.2318C72.6732 29.2458 72.6902 29.2567 72.7089 29.2639C72.7276 29.2711 72.7476 29.2744 72.7675 29.2736L75.4411 29.27C75.8704 29.27 76.6084 29.2645 76.6909 29.3586C77.3364 30.1131 78.1184 31.2729 78.2528 32.2494C78.2903 32.5319 78.1871 32.6501 77.842 32.6501H77.4833C77.4441 32.6501 77.4066 32.6658 77.3789 32.6937C77.3512 32.7216 77.3357 32.7595 77.3357 32.799C77.3357 32.8385 77.3512 32.8763 77.3789 32.9043C77.4066 32.9322 77.4441 32.9479 77.4833 32.9479H77.7996C78.0726 32.9479 78.221 32.9937 78.157 33.1999C77.8097 34.3173 77.2903 35.1264 75.1736 35.1152C72.9544 35.1026 72.5031 32.9067 73.1521 30.616C73.2795 30.1615 73.1464 29.9644 72.9434 30.3241L71.3979 32.7724C71.3475 32.836 71.2832 32.887 71.2102 32.9216C71.1371 32.9561 71.0571 32.9732 70.9765 32.9716L70.7585 32.9702C70.7386 32.9695 70.7188 32.9728 70.7002 32.9799C70.6816 32.9871 70.6646 32.9979 70.6502 33.0119C70.6359 33.0258 70.6245 33.0425 70.6167 33.061C70.6089 33.0795 70.6048 33.0994 70.6048 33.1195C70.6048 33.1396 70.6089 33.1595 70.6167 33.178C70.6245 33.1965 70.6359 33.2132 70.6502 33.2271C70.6646 33.241 70.6816 33.2519 70.7002 33.2591C70.7188 33.2662 70.7386 33.2695 70.7585 33.2687C70.9539 33.2687 71.0304 33.3747 70.9539 33.4845L70.39 34.375C69.4544 32.2208 67.8905 29.567 67.0573 28.6014L67.0718 28.5549C69.1308 28.4281 72.1657 26.4832 72.6647 24.7434C73.5266 21.7267 70.623 20.6113 69.0387 20.6113L62.0818 20.6127C61.157 20.6127 61.0892 21.3207 61.9761 21.3207C62.4556 21.3207 62.8751 21.7436 62.6635 22.1719L61.123 24.9747C60.9958 25.2046 60.5159 25.1902 59.8952 25.1902H59.2203C59.1808 25.1902 59.1429 25.206 59.1149 25.2342C59.0869 25.2625 59.0712 25.3007 59.0712 25.3406C59.0712 25.3805 59.0869 25.4188 59.1149 25.447C59.1429 25.4752 59.1808 25.4911 59.2203 25.4911H59.884C60.328 25.4911 60.8167 25.5168 60.6514 25.8376L58.8294 29.1565C58.7417 29.3114 58.5049 29.3236 57.8866 29.3236H57.2148C57.1751 29.3236 57.137 29.3395 57.1089 29.3679C57.0808 29.3962 57.0651 29.4346 57.0651 29.4747C57.0651 29.5148 57.0808 29.5532 57.1089 29.5816C57.137 29.6099 57.1751 29.6258 57.2148 29.6258H57.8697C58.36 29.6258 58.5415 29.6911 58.4012 29.9456L55.9675 34.3885C55.677 34.7063 55.3316 34.7671 54.7368 34.7671C53.8495 34.7671 53.8587 35.4769 54.7844 35.4769H60.7419C61.6679 35.4769 61.433 34.7545 60.8849 34.7545C60.5663 34.7545 60.2271 34.1595 60.4407 33.8031L63.4826 27.9894H63.7918C65.1441 27.9894 65.4717 30.2294 65.7249 32.6737C65.744 32.8508 65.4142 32.8567 64.7383 32.8567L63.0478 32.8625C63.0284 32.8624 63.0091 32.8661 62.9911 32.8736C62.9731 32.881 62.9568 32.892 62.943 32.9058C62.9292 32.9196 62.9183 32.9361 62.9109 32.9542C62.9034 32.9723 62.8996 32.9918 62.8996 33.0114C62.8998 33.051 62.9155 33.089 62.9432 33.117C62.971 33.1451 63.0086 33.161 63.0478 33.1612H64.7192C65.1649 33.1612 65.7854 33.1656 65.8019 33.3074C65.8787 34.2748 66.015 35.2364 66.2099 36.1867C66.2728 36.4547 65.7981 36.4124 65.2915 36.4124L63.1371 36.4146C63.1171 36.4139 63.0971 36.4172 63.0784 36.4244C63.0598 36.4315 63.0427 36.4425 63.0283 36.4565C63.0139 36.4705 63.0024 36.4872 62.9946 36.5058C62.9867 36.5244 62.9827 36.5444 62.9827 36.5645C62.9827 36.5847 62.9867 36.6047 62.9946 36.6233C63.0024 36.6419 63.0139 36.6586 63.0283 36.6726C63.0427 36.6866 63.0598 36.6976 63.0784 36.7047C63.0971 36.7119 63.1171 36.7152 63.1371 36.7145L65.2888 36.7169C65.965 36.7169 66.3145 36.7169 66.3526 36.8563C67.2788 40.2859 71.2534 42.9868 75.1173 42.8377C78.4342 42.7109 81.2366 40.8906 82.6679 39.7296C84.5783 38.1843 87.379 34.949 88.522 32.5974C88.7274 32.1666 89.0651 31.6134 88.9873 31.23M66.6969 26.6651C66.2316 27.0481 65.5004 27.4931 65.3581 27.351C65.0089 27.0454 64.6246 26.7833 64.2134 26.5704L66.976 21.4767C67.0303 21.3814 67.1113 21.3044 67.2088 21.2552C67.3063 21.206 67.4159 21.1869 67.5241 21.2001C68.5984 21.2001 68.9493 22.3759 68.445 23.8409C68.0909 24.8678 67.5167 25.9807 66.6955 26.664" fill="#552582"/>
<path d="M33.1454 16.0861C32.5848 16.8162 31.8442 17.0019 31.0134 17.0019H30.7775L32.2428 14.0732C32.2841 13.9989 32.3447 13.9372 32.4181 13.8949C32.4915 13.8526 32.5748 13.8312 32.6593 13.8329C32.8426 13.8329 32.819 13.4634 32.5795 13.4634H30.2693C30.0732 13.4634 30.0046 13.8329 30.1879 13.8329C30.3852 13.8329 30.4201 14.0542 30.3265 14.2398L29.014 16.8494C28.9163 16.9725 28.7746 17.052 28.6194 17.0707C28.424 17.1209 28.2905 17.4727 28.5111 17.4727H32.1993C32.2831 17.4846 32.3684 17.4712 32.4446 17.434C32.5207 17.3969 32.5842 17.3377 32.6269 17.2641L33.3693 16.1044C33.4756 15.9655 33.2515 15.9456 33.145 16.0858M44.2552 13.5665C44.179 13.6059 44.0946 13.6262 44.009 13.6257C43.9235 13.6253 43.8392 13.6042 43.7634 13.5641C43.4194 13.3116 43.0126 13.1607 42.5884 13.1282C41.7193 13.1282 41.0899 13.3015 40.711 14.1294C40.3891 14.8364 40.7193 15.4274 41.4858 15.7845C41.818 15.9394 42.258 16.1432 42.0894 16.5452C41.9664 16.8417 41.6261 16.8713 41.3194 16.87C40.9081 16.8647 40.2889 16.5525 40.1931 15.9664C40.1604 15.7748 39.9396 15.8197 39.8763 15.9221L39.3501 16.978C39.2676 17.118 39.4849 17.2734 39.5704 17.182C39.6697 17.0886 39.7949 17.028 39.9292 17.0082C40.0635 16.9885 40.2006 17.0105 40.3222 17.0714C40.5854 17.2484 41.2589 17.5559 41.6566 17.5515C42.5387 17.5446 43.1206 17.3172 43.6043 16.5532C44.0443 15.8575 43.7735 15.1674 42.9684 14.783C42.5431 14.5839 42.1791 14.225 42.369 13.8316C42.4946 13.5763 42.8708 13.6309 43.0585 13.6626C43.419 13.725 43.879 14.0662 43.932 14.366C43.9374 14.3941 43.9512 14.4198 43.9717 14.4397C43.9922 14.4595 44.0182 14.4724 44.0463 14.4767C44.0743 14.4809 44.103 14.4763 44.1283 14.4634C44.1537 14.4505 44.1744 14.43 44.1877 14.4047L44.4639 13.7531C44.5275 13.6272 44.3238 13.5285 44.2539 13.5654M69.8484 14.6162L70.171 14.0199C70.3117 13.7571 70.0819 13.4583 69.7138 13.4583H65.4068C65.0974 13.4583 65.1858 13.784 65.3125 13.784C65.5894 13.784 65.6712 14.1255 65.5037 14.4138L64.2101 16.8167C64.1485 16.9192 64.0613 17.0036 63.9572 17.0615C63.8531 17.1194 63.7359 17.1487 63.6171 17.1466C63.3947 17.1466 63.3151 17.4734 63.6263 17.4734H67.9911C68.0531 17.4798 68.1155 17.4689 68.1717 17.4419C68.2279 17.4149 68.2756 17.3728 68.3097 17.3203L68.9028 16.5251C69.0471 16.3343 68.7353 16.3343 68.6397 16.4292C67.8874 17.1893 67.0808 17.1692 66.4956 17.1692H65.987L66.5827 15.8212H66.712C67.0942 15.8212 67.5369 15.8159 67.6548 16.1117C67.672 16.1349 67.6942 16.1537 67.7198 16.1667C67.7455 16.1796 67.7737 16.1864 67.8024 16.1864C67.831 16.1864 67.8593 16.1796 67.8849 16.1667C67.9105 16.1537 67.9328 16.1349 67.9499 16.1117L68.459 15.0822C68.5419 14.93 68.3132 14.9034 68.2497 15.0129C68.0501 15.3754 67.1639 15.2785 66.9341 15.2785H66.8048L67.5502 13.796H68.3794C68.618 13.8008 68.85 13.8761 69.0465 14.0128C69.243 14.1495 69.3954 14.3414 69.4847 14.5647C69.5196 14.6602 69.7952 14.7375 69.8498 14.6153M58.8314 13.4575H57.299C56.9886 13.4575 57.0813 13.7832 57.2061 13.7832C57.2917 13.7868 57.3751 13.8117 57.4488 13.8558C57.5225 13.8998 57.5843 13.9617 57.6286 14.0357C57.6728 14.1097 57.6983 14.1937 57.7025 14.28C57.7068 14.3664 57.6899 14.4525 57.6531 14.5306L57.0173 15.7033L55.6176 13.6354C55.5514 13.5699 55.4723 13.5192 55.3854 13.4867C55.2985 13.4541 55.2058 13.4404 55.1133 13.4464H53.6055C53.2955 13.4464 53.3674 13.7717 53.4935 13.7717C53.8133 13.7717 53.7313 14.0133 53.6524 14.1856L52.4498 16.5204C52.4242 16.5669 52.3862 16.6052 52.3402 16.631C52.2941 16.6569 52.2419 16.6692 52.1892 16.6667C52.1366 16.6641 52.0857 16.6468 52.0424 16.6166C51.999 16.5864 51.9648 16.5446 51.9438 16.4958L51.0146 13.4378C50.9762 13.317 50.4318 13.3236 50.2932 13.4378L47.9634 15.3776H46.754C46.5159 15.3776 46.4203 15.4789 46.4203 15.6066C46.4203 15.7343 46.5113 15.8529 46.7633 15.8529L47.3938 15.8506L46.7637 16.3766C46.4142 16.6381 46.0559 17.0028 45.8141 17.0028H45.6698C45.4407 17.0028 45.3111 17.0406 45.3111 17.2254C45.3111 17.4101 45.4085 17.4738 45.6242 17.4738H47.5037C47.8589 17.4738 47.7887 17.0076 47.6115 17.0076C47.542 17.0083 47.474 16.9873 47.4169 16.9474C47.3597 16.9075 47.3162 16.8507 47.2923 16.7848C47.2684 16.7189 47.2654 16.6472 47.2836 16.5795C47.3017 16.5117 47.3403 16.4514 47.3938 16.4067L47.9678 15.8535H49.0987C49.7697 15.8535 50.2389 16.6379 49.8385 16.882L49.5298 17.0541C49.3838 17.1304 49.3204 17.4745 49.5298 17.4745H53.2018C53.4768 17.4745 53.42 17.1123 53.2926 17.1123C52.9184 17.1123 53.0953 16.5649 53.1681 16.4197L54.1328 14.5742L55.4895 17.2258C55.5772 17.3922 55.6575 17.4743 55.8162 17.4743H56.3361C56.4994 17.4743 56.5553 17.378 56.6308 17.2506L58.1736 14.4361C58.4231 13.933 58.6139 13.7889 58.9268 13.7889C59.0533 13.7874 59.1423 13.4581 58.8299 13.4581M48.5559 15.3767L49.9926 14.194L49.9992 15.3767H48.5559ZM37.0701 13.2827C35.778 13.2827 34.448 13.9243 34.181 15.2931C34.119 15.5925 34.1255 15.9022 34.1998 16.1988C34.2741 16.4953 34.4144 16.7709 34.61 17.0046C34.8055 17.2383 35.0512 17.424 35.3285 17.5477C35.6057 17.6713 35.9072 17.7296 36.2101 17.7181C37.5827 17.7181 38.8506 16.8109 39.1043 15.4977C39.3593 14.1779 38.386 13.2827 37.069 13.2827M37.436 15.7907C37.0245 16.614 36.3397 17.1063 35.9012 16.8846C35.4627 16.6629 35.4445 15.8155 35.8545 14.9906C36.2645 14.1657 36.9486 13.675 37.3864 13.8969C37.8243 14.1188 37.8429 14.966 37.4353 15.7909M63.1945 15.2787H61.5387C61.2287 15.2787 61.3195 15.6059 61.4445 15.6059C61.576 15.6059 61.6984 15.6752 61.6984 15.8869C61.6984 16.5636 61.4146 16.824 60.8365 16.824C60.2057 16.824 59.9766 16.0496 60.4032 15.1017C60.5729 14.7536 60.8349 14.4598 61.16 14.2528C61.485 14.0458 61.8606 13.9337 62.245 13.929C62.7692 13.929 63.2097 14.0429 63.2739 14.5374C63.2901 14.6591 63.4712 14.6591 63.5329 14.5443L63.9286 13.8316C63.9725 13.7555 63.9038 13.6652 63.7832 13.6573C63.6824 13.6504 63.4544 13.7825 63.3068 13.6714C62.8265 13.366 62.2738 13.1961 61.7062 13.1796C60.8139 13.1796 59.569 13.3829 58.7292 14.8565C57.9706 16.1881 59.077 17.596 60.1039 17.5969C60.674 17.5991 61.3362 17.1729 61.715 17.0105L62.1393 17.3026C62.1791 17.351 62.2279 17.3909 62.283 17.4202C62.3382 17.4496 62.3984 17.4676 62.4605 17.4734H62.6175C62.7655 17.4734 62.8216 17.2743 62.879 17.1455L63.5287 15.5537C63.6124 15.3944 63.5664 15.2793 63.1976 15.2793M85.9362 13.5665C85.8603 13.6059 85.7761 13.6262 85.6909 13.6258C85.6056 13.6253 85.5216 13.6042 85.4461 13.5641C85.102 13.3116 84.695 13.1606 84.2707 13.1282C83.4023 13.1282 82.7708 13.3015 82.3932 14.1294C82.0688 14.8364 82.4011 15.4274 83.1681 15.7845C83.5018 15.9394 83.9429 16.1432 83.7739 16.5452C83.6491 16.8417 83.3067 16.8713 83.0001 16.87C82.5906 16.8647 81.9697 16.5525 81.8738 15.9664C81.8425 15.7748 81.6217 15.8197 81.5597 15.9221L81.0334 16.978C80.9508 17.118 81.1674 17.2734 81.2527 17.182C81.3526 17.0886 81.4782 17.028 81.613 17.0082C81.7477 16.9885 81.8853 17.0105 82.0074 17.0714C82.2678 17.2484 82.9385 17.5559 83.3424 17.5515C84.2207 17.5446 84.8039 17.3172 85.2848 16.5532C85.7272 15.8575 85.4549 15.1674 84.6518 14.783C84.2251 14.5839 83.8625 14.225 84.0528 13.8316C84.1751 13.5763 84.556 13.6309 84.7445 13.6626C85.1008 13.725 85.5636 14.0662 85.6156 14.366C85.6207 14.3941 85.6343 14.4198 85.6546 14.4397C85.6749 14.4596 85.7009 14.4726 85.7289 14.4769C85.7568 14.4811 85.7854 14.4765 85.8106 14.4635C85.8359 14.4506 85.8564 14.43 85.8695 14.4047L86.1462 13.7531C86.2078 13.6272 86.0054 13.5285 85.9357 13.5654M74.3942 16.0845C73.8371 16.8147 73.0941 17.0003 72.2613 17.0003H72.0276L73.4953 14.0717C73.5363 13.9973 73.5967 13.9356 73.6698 13.8933C73.743 13.8509 73.8262 13.8295 73.9106 13.8314C74.0941 13.8314 74.0717 13.4619 73.8299 13.4619H71.5198C71.3225 13.4619 71.2539 13.8314 71.4374 13.8314C71.6347 13.8314 71.6718 14.0527 71.5762 14.2383L70.2637 16.8479C70.1663 16.9713 70.0244 17.0509 69.8691 17.0691C69.6737 17.1194 69.5402 17.4712 69.7621 17.4712H73.4503C73.5342 17.483 73.6196 17.4695 73.6958 17.4323C73.772 17.3952 73.8356 17.3361 73.8785 17.2625L74.6183 16.1029C74.7279 15.9639 74.5025 15.944 74.3947 16.0843M79.958 13.7942C80.1965 13.799 80.4284 13.8744 80.6248 14.011C80.8212 14.1477 80.9734 14.3396 81.0626 14.5629C81.0959 14.6591 81.3715 14.7361 81.4296 14.6142L81.7506 14.0179C81.8885 13.7551 81.6594 13.4564 81.2919 13.4564H76.9858C76.6753 13.4564 76.7665 13.7821 76.8924 13.7821C77.1704 13.7821 77.2537 14.1235 77.0842 14.4118L75.7906 16.8147C75.7287 16.9172 75.6413 17.0017 75.537 17.0595C75.4327 17.1174 75.3152 17.1467 75.1963 17.1446C74.9744 17.1446 74.8957 17.4714 75.2074 17.4714H79.5706C79.6325 17.4778 79.695 17.4669 79.7511 17.4399C79.8073 17.4129 79.8551 17.3708 79.8892 17.3183L80.4827 16.5231C80.6283 16.3323 80.3147 16.3323 80.2196 16.4273C79.4664 17.1873 78.6587 17.1672 78.0753 17.1672H77.5662L78.1641 15.8192H78.291C78.6745 15.8192 79.1172 15.8139 79.2338 16.1097C79.2512 16.1329 79.2736 16.1517 79.2994 16.1647C79.3252 16.1776 79.3536 16.1844 79.3824 16.1844C79.4111 16.1844 79.4395 16.1776 79.4653 16.1647C79.4911 16.1517 79.5135 16.1329 79.5309 16.1097L80.0393 15.0802C80.1231 14.928 79.8931 14.9014 79.8317 15.011C79.6289 15.3734 78.746 15.2765 78.5125 15.2765H78.3864L79.1319 13.794H79.9604L79.958 13.7942Z" fill="#552582"/>
<mask id="mask0_15_14" style="mask-type:luminance" maskUnits="userSpaceOnUse" x="15" y="0" width="54" height="56">
<path d="M42.0098 55.3409C56.7552 55.3409 68.7081 43.0964 68.7081 27.9909C68.7081 12.8855 56.7552 0.642776 42.0098 0.642776C27.2679 0.642776 15.3148 12.8884 15.3148 27.9909C15.3148 43.0935 27.2679 55.3409 42.0098 55.3409Z" fill="white"/>
</mask>
<g mask="url(#mask0_15_14)">
<path d="M54.1797 30.7895C51.6863 33.8429 50.2719 34.8879 47.7389 34.8879C46.8768 34.8879 46.4278 34.6921 46.67 34.2708L49.6738 28.1733H50.8194C52.0987 28.1733 51.9218 29.261 51.5736 30.7335C51.5122 30.9393 51.6666 30.9505 51.8185 30.7722L54.6748 25.7066C54.8142 25.3869 54.4533 25.3249 54.2775 25.5661C52.8468 27.5261 51.3406 27.3805 50.7063 27.3805H50.1879L53.3983 21.2004H54.6919C56.3205 21.3021 57.0793 22.6983 56.6079 26.0639H57.2861L59.6446 21.3714C59.8353 20.9753 59.4336 20.6116 58.989 20.6116L42.9778 20.6162C42.0508 20.6162 42.0089 21.3344 42.8989 21.3344C43.6187 21.3344 43.5805 22.3768 42.9335 22.8811L36.1367 28.3275L37.5098 34.7578C37.6098 35.2431 37.9201 35.4743 38.4507 35.4743H51.6903C51.8737 35.4891 52.0577 35.455 52.2239 35.3755C52.3901 35.296 52.5327 35.1738 52.6374 35.0211L55.0343 30.8428C55.3661 30.2412 54.5958 30.2801 54.1792 30.7895M44.957 27.8533L43.7912 27.8467C43.772 27.8465 43.7528 27.8503 43.735 27.8576C43.7172 27.865 43.7009 27.8759 43.6873 27.8896C43.6736 27.9033 43.6627 27.9196 43.6553 27.9376C43.6479 27.9555 43.6441 27.9748 43.6441 27.9942C43.6442 28.0336 43.6598 28.0713 43.6873 28.0992C43.7149 28.127 43.7522 28.1428 43.7912 28.1429L44.9724 28.1317C45.3731 28.1317 45.7397 28.1832 45.6373 28.3622L42.5757 34.2618C42.1962 34.9647 41.3917 34.7848 41.2632 34.2228L39.7469 26.3162L45.0785 22.1443C45.6071 21.6854 46.6275 20.9368 47.148 20.9452L48.31 20.9386C49.0167 20.934 49.2697 21.2683 49.1013 21.7004L48.8963 22.0987C48.7632 22.3224 48.3458 22.3494 47.9897 22.3494L47.3195 22.3527C47.2802 22.3527 47.2426 22.3684 47.2148 22.3964C47.1871 22.4244 47.1715 22.4624 47.1715 22.502C47.1715 22.5417 47.1871 22.5796 47.2148 22.6077C47.2426 22.6357 47.2802 22.6514 47.3195 22.6514H47.9805C48.2666 22.6514 48.6249 22.6587 48.4933 22.8753L46.0208 27.6325C45.9064 27.8183 45.3927 27.852 44.957 27.852" fill="#552582"/>
</g>
<mask id="mask1_15_14" style="mask-type:luminance" maskUnits="userSpaceOnUse" x="15" y="0" width="54" height="56">
<path d="M42.0098 55.3409C56.7552 55.3409 68.7081 43.0964 68.7081 27.9909C68.7081 12.8855 56.7552 0.642776 42.0098 0.642776C27.2679 0.642776 15.3148 12.8884 15.3148 27.9909C15.3148 43.0935 27.2679 55.3409 42.0098 55.3409Z" fill="white"/>
</mask>
<g mask="url(#mask1_15_14)">
<path d="M33.967 34.7565C33.8178 34.7527 33.6734 34.7027 33.5535 34.6132C33.4335 34.5237 33.3438 34.399 33.2965 34.2562C33.1809 33.8549 33.1925 33.4272 33.3298 33.0329L39.5068 21.9785C39.6068 21.7741 39.8576 21.3479 40.1646 21.3479C40.7103 21.3479 40.946 20.6244 40.0214 20.6244H35.0744C34.15 20.6244 34.1408 21.3347 35.0266 21.3347C35.0959 21.3318 35.1649 21.3465 35.2272 21.3774C35.2894 21.4083 35.343 21.4545 35.383 21.5117C35.423 21.569 35.4482 21.6354 35.4562 21.7049C35.4642 21.7745 35.4549 21.845 35.4289 21.91L34.063 24.4102C33.892 24.6844 33.5133 24.7054 33.1145 24.7054L31.936 24.7007C31.9159 24.7 31.8959 24.7033 31.8771 24.7105C31.8583 24.7177 31.8411 24.7287 31.8266 24.7428C31.8121 24.7569 31.8006 24.7738 31.7927 24.7925C31.7848 24.8111 31.7808 24.8312 31.7808 24.8515C31.7808 24.8718 31.7848 24.8919 31.7927 24.9106C31.8006 24.9293 31.8121 24.9462 31.8266 24.9603C31.8411 24.9743 31.8583 24.9853 31.8771 24.9926C31.8959 24.9998 31.9159 25.0031 31.936 25.0023H33.1046C33.4206 25.0023 33.6725 25.0986 33.4905 25.4688L28.93 33.8502C28.6012 34.3115 27.9476 34.4147 27.9846 33.5307L29.6071 21.255C29.6711 20.8716 29.5711 20.6116 29.1649 20.6116L26.7208 20.6162C26.5989 20.615 26.4786 20.645 26.3712 20.7034C26.2639 20.7619 26.1729 20.8468 26.1069 20.9503L25.2334 22.0595C25.1183 22.1746 24.8732 22.1735 24.6015 22.1735L22.5478 22.1702C22.5094 22.1716 22.473 22.1881 22.4464 22.216C22.4197 22.244 22.4049 22.2813 22.4049 22.3201C22.4049 22.3589 22.4197 22.3961 22.4464 22.4241C22.473 22.452 22.5094 22.4685 22.5478 22.47H24.2249C24.5224 22.47 24.8699 22.5392 24.7438 22.6806L22.3919 25.6677C22.2604 25.7484 22.1068 25.7849 21.9534 25.7719H21.2893C21.2502 25.7719 21.2127 25.7875 21.1851 25.8154C21.1575 25.8433 21.1419 25.8811 21.1419 25.9206C21.1419 25.96 21.1575 25.9978 21.1851 26.0257C21.2127 26.0536 21.2502 26.0693 21.2893 26.0693L21.8433 26.0715C22.0152 26.0715 22.0165 26.156 21.9479 26.2345L19.7359 29.038C19.5732 29.1431 19.3798 29.1892 19.1877 29.1685L17.2348 29.1663C17.2154 29.1663 17.1962 29.1702 17.1782 29.1777C17.1603 29.1852 17.1439 29.1962 17.1302 29.21C17.1165 29.2239 17.1056 29.2404 17.0981 29.2585C17.0907 29.2766 17.0869 29.296 17.0869 29.3156C17.0869 29.3353 17.0907 29.3547 17.0981 29.3728C17.1056 29.3909 17.1165 29.4074 17.1302 29.4212C17.1439 29.4351 17.1603 29.4461 17.1782 29.4536C17.1962 29.4611 17.2154 29.465 17.2348 29.465H18.9104C19.1649 29.465 19.3612 29.5106 19.2272 29.6836L16.0827 33.6604C15.492 34.4195 12.6476 34.8058 12.0936 34.8058L22.7214 14.7373C22.8126 14.5723 22.9428 14.4327 23.1005 14.331C23.2582 14.2293 23.4384 14.1687 23.625 14.1544H25.882C26.9471 14.1544 26.9158 13.4395 25.9916 13.4395H14.6457C13.7222 13.4395 13.6847 14.1544 14.7479 14.1544H16.8492C17.4453 14.1544 17.637 14.518 17.485 14.8158L17.1833 15.369C17.0847 15.548 16.9421 15.6197 16.3666 15.6197L12.6542 15.6174C12.615 15.6174 12.5775 15.6331 12.5498 15.6611C12.5221 15.689 12.5065 15.7269 12.5065 15.7665C12.5065 15.806 12.5221 15.8439 12.5498 15.8718C12.5775 15.8998 12.615 15.9155 12.6542 15.9155L16.3565 15.9173C16.5574 15.9173 16.8584 15.9699 16.6692 16.3346L16.1485 17.3081C16.0769 17.3887 15.9872 17.4506 15.8868 17.4886C15.7864 17.5265 15.6784 17.5394 15.572 17.5261L13.8901 17.5227C13.8508 17.5227 13.8131 17.5385 13.7853 17.5665C13.7575 17.5946 13.7419 17.6326 13.7419 17.6723C13.7419 17.712 13.7575 17.75 13.7853 17.7781C13.8131 17.8061 13.8508 17.8219 13.8901 17.8219L15.5641 17.8241C15.8036 17.8241 15.8101 17.9821 15.6714 18.2058L14.4758 20.447C14.3736 20.6384 14.1796 20.664 13.7998 20.664L13.1306 20.6605C13.0928 20.6626 13.0572 20.6792 13.0311 20.707C13.005 20.7348 12.9905 20.7716 12.9905 20.8098C12.9905 20.8481 13.005 20.8849 13.0311 20.9127C13.0572 20.9405 13.0928 20.9571 13.1306 20.9592L13.7915 20.9605C14.0434 20.9605 14.1098 21.1026 13.9969 21.3451L13.0155 23.1864C12.8691 23.448 12.661 23.5522 12.0081 23.5522L8.29589 23.5489C8.2582 23.5514 8.22288 23.5683 8.19707 23.5961C8.17126 23.6239 8.15691 23.6606 8.15691 23.6988C8.15691 23.7369 8.17126 23.7736 8.19707 23.8014C8.22288 23.8292 8.2582 23.8461 8.29589 23.8487H11.998C12.4161 23.8551 12.5702 24.0401 12.4069 24.3425L10.4891 27.9761C10.3757 28.137 10.0631 28.1615 9.53007 28.1615L5.81833 28.1573C5.78053 28.1594 5.74495 28.176 5.71892 28.2038C5.69289 28.2315 5.67838 28.2683 5.67838 28.3065C5.67838 28.3447 5.69289 28.3814 5.71892 28.4092C5.74495 28.4369 5.78053 28.4535 5.81833 28.4556L9.5213 28.4569C9.96419 28.4569 10.235 28.4759 10.0997 28.7114L8.99772 30.8083C8.79425 31.1278 8.22507 31.1278 8.00341 31.1278L6.82558 31.124C6.7863 31.124 6.74863 31.1398 6.72085 31.1678C6.69307 31.1958 6.67747 31.2339 6.67747 31.2735C6.67747 31.3131 6.69307 31.3511 6.72085 31.3792C6.74863 31.4072 6.7863 31.423 6.82558 31.423H7.99288C8.40639 31.423 8.62367 31.4951 8.5158 31.7186L7.04045 34.5162C6.90758 34.7658 6.33116 34.7775 5.88695 34.7775L0.148214 34.7733C0.108759 34.7733 0.0709216 34.7891 0.043023 34.8173C0.0151245 34.8454 -0.000549316 34.8836 -0.000549316 34.9234C-0.000549316 34.9633 0.0151245 35.0015 0.043023 35.0296C0.0709216 35.0578 0.108759 35.0736 0.148214 35.0736L5.8784 35.0749C6.25837 35.0749 6.73788 35.1218 6.55918 35.4289L5.62034 37.2145C5.53132 37.3619 5.21012 37.3749 4.74684 37.3749L3.5712 37.3716C3.53203 37.3716 3.49448 37.3873 3.46678 37.4153C3.43909 37.4432 3.42353 37.4811 3.42353 37.5206C3.42353 37.5602 3.43909 37.5981 3.46678 37.626C3.49448 37.654 3.53203 37.6697 3.5712 37.6697H4.7396C5.02309 37.6697 5.37149 37.7029 5.24936 37.921L4.66023 39.0614C4.47058 39.3453 4.28136 39.5973 3.82707 39.5973H0.946736C-0.118397 39.5973 -0.0811244 40.3129 0.843467 40.3129L17.7532 40.3233C18.2478 40.3233 18.2632 40.2569 18.4962 39.8878L21.0045 35.4758L33.8218 35.4772C34.7475 35.4789 34.5094 34.7749 33.967 34.7567M23.9127 33.4413C23.7872 34.1695 23.0615 34.6499 22.1481 34.8952L21.2073 35.1311L21.9808 33.7254C22.1843 33.3431 21.7381 33.1178 21.2514 33.6865C17.9792 37.5354 16.934 39.376 11.8864 39.39L10.5296 39.3924C10.1194 39.3924 9.66907 39.2309 9.94753 38.8351L11.7329 35.4774H18.5164C19.4421 35.4774 19.2044 34.7731 18.6607 34.7552C18.4483 34.7384 18.2433 34.6691 18.0638 34.5533C17.8843 34.4376 17.7359 34.2789 17.6317 34.0914C17.5482 33.9402 17.5057 33.7693 17.5088 33.5962C17.5118 33.4231 17.5601 33.2538 17.6488 33.1057L20.2465 29.621H24.5658L23.9127 33.4413ZM24.8896 29.036H20.6778L26.0056 21.9431L24.8888 29.036H24.8896Z" fill="#552582"/>
</g>
<mask id="mask2_15_14" style="mask-type:luminance" maskUnits="userSpaceOnUse" x="15" y="0" width="54" height="56">
<path d="M42.0098 55.3409C56.7552 55.3409 68.7081 43.0964 68.7081 27.9909C68.7081 12.8855 56.7552 0.642776 42.0098 0.642776C27.2679 0.642776 15.3148 12.8884 15.3148 27.9909C15.3148 43.0935 27.2679 55.3409 42.0098 55.3409Z" fill="white"/>
</mask>
<g mask="url(#mask2_15_14)">
<path d="M88.9883 31.2302C88.9188 30.8798 88.7943 31.0928 88.5652 31.5347C88.495 31.6675 88.2727 31.6721 88.0501 31.6721L87.374 31.6745C87.3541 31.6738 87.3343 31.677 87.3158 31.6842C87.2972 31.6913 87.2803 31.7021 87.266 31.716C87.2517 31.7299 87.2403 31.7466 87.2325 31.765C87.2247 31.7835 87.2207 31.8033 87.2207 31.8233C87.2207 31.8434 87.2247 31.8632 87.2325 31.8816C87.2403 31.9001 87.2517 31.9167 87.266 31.9306C87.2803 31.9445 87.2972 31.9554 87.3158 31.9625C87.3343 31.9696 87.3541 31.9729 87.374 31.9721H88.0405C88.292 31.9721 88.2975 32.1429 88.1784 32.3992C87.7571 33.291 87.2243 34.1246 86.593 34.8798C86.4435 35.028 86.2432 35.1126 86.0337 35.1161L85.352 35.1203C85.3128 35.1203 85.2751 35.136 85.2474 35.164C85.2196 35.192 85.204 35.23 85.204 35.2696C85.204 35.3092 85.2196 35.3472 85.2474 35.3752C85.2751 35.4032 85.3128 35.419 85.352 35.419H86.0188C86.3544 35.419 86.0142 35.6265 85.9574 35.7029C85.1458 36.8379 84.1814 37.8532 83.0919 38.7193C82.9896 38.8021 82.5 38.772 82.156 38.77L81.4846 38.7722C81.4449 38.7722 81.4068 38.7881 81.3787 38.8165C81.3506 38.8448 81.3349 38.8833 81.3349 38.9233C81.3349 38.9634 81.3506 39.0019 81.3787 39.0302C81.4068 39.0585 81.4449 39.0745 81.4846 39.0745H82.1481C82.6539 39.0745 82.2728 39.3676 82.1978 39.4305C80.3535 40.9807 77.6102 41.4785 76.3536 41.3205C72.2779 40.8052 71.4373 37.6823 71.1354 36.4341C71.074 36.1728 70.8778 35.6376 70.8129 35.3075C70.687 34.655 72.5259 34.4695 73.0344 34.8129C73.8033 35.3327 75.5996 35.8664 77.0142 35.8706C78.3208 35.8759 80.997 34.9171 81.7707 32.6514C82.5633 30.3332 80.574 27.7599 79.6913 26.8727C78.5705 25.7391 77.5089 23.9363 77.9573 22.6127C78.2936 21.6139 78.8562 21.1614 80.0638 21.1614C81.6236 21.1614 82.7567 22.1735 82.7567 23.6088C82.7567 23.7383 82.6808 23.8894 82.5776 23.8894L82.0268 23.8916C81.9872 23.8916 81.9493 23.9075 81.9213 23.9357C81.8933 23.9639 81.8776 24.0022 81.8776 24.0422C81.8776 24.0821 81.8933 24.1204 81.9213 24.1486C81.9493 24.1769 81.9872 24.1927 82.0268 24.1927L82.5436 24.1914C82.6901 24.1914 82.7817 24.302 82.7431 24.4833C82.6436 24.9627 82.6094 25.3006 82.5061 25.7825C82.4438 26.0613 82.8501 26.2547 82.9907 26.0513L85.4423 21.6349C85.6204 21.3017 85.2255 21.2125 84.9352 21.3161C84.2634 21.5491 83.1722 21.7144 82.7852 21.4316C81.8687 20.7678 81.0323 20.343 79.7551 20.343C77.5747 20.343 76.0497 20.8831 75.0706 22.6932C74.9943 22.8353 74.78 22.8331 74.5972 22.8331H74.1786C74.1593 22.8331 74.1401 22.8369 74.1223 22.8444C74.1044 22.8519 74.0881 22.8628 74.0745 22.8766C74.0608 22.8904 74.0499 22.9068 74.0425 22.9249C74.0351 22.9429 74.0313 22.9622 74.0313 22.9818C74.0313 23.0013 74.0351 23.0206 74.0425 23.0387C74.0499 23.0567 74.0608 23.0731 74.0745 23.0869C74.0881 23.1007 74.1044 23.1117 74.1223 23.1191C74.1401 23.1266 74.1593 23.1304 74.1786 23.1304L74.5349 23.1271C74.6871 23.1271 74.7888 23.1714 74.713 23.3497C74.6462 23.5129 74.5846 23.6832 74.5283 23.8608C74.281 24.645 74.3615 25.7445 74.7505 26.7233C74.7754 26.7897 74.6919 26.8194 74.5417 26.8194H73.8767C73.8567 26.8186 73.8368 26.8219 73.8181 26.8291C73.7994 26.8362 73.7824 26.8472 73.7679 26.8612C73.7535 26.8752 73.7421 26.8919 73.7342 26.9105C73.7264 26.9291 73.7224 26.9491 73.7224 26.9693C73.7224 26.9894 73.7264 27.0094 73.7342 27.028C73.7421 27.0466 73.7535 27.0634 73.7679 27.0774C73.7824 27.0913 73.7994 27.1023 73.8181 27.1095C73.8368 27.1166 73.8567 27.1199 73.8767 27.1192H74.5424C74.8443 27.1205 74.9169 27.1524 75.0418 27.3296C75.3869 27.8184 75.7382 28.1806 76.1804 28.7501C76.3214 28.9271 75.7259 28.9773 75.4093 28.9753L72.7686 28.974C72.7302 28.9755 72.6939 28.9919 72.6672 29.0199C72.6406 29.0478 72.6257 29.0851 72.6257 29.1239C72.6257 29.1627 72.6406 29.2 72.6672 29.2279C72.6939 29.2559 72.7302 29.2723 72.7686 29.2738L75.4424 29.2701C75.8719 29.2701 76.6097 29.2645 76.6922 29.3586C77.3376 30.1131 78.1199 31.2729 78.2543 32.2494C78.2916 32.5322 78.1886 32.6501 77.8432 32.6501H77.4848C77.4466 32.6516 77.4106 32.6679 77.3841 32.6956C77.3577 32.7234 77.3429 32.7604 77.3429 32.7989C77.3429 32.8374 77.3577 32.8744 77.3841 32.9021C77.4106 32.9299 77.4466 32.9462 77.4848 32.9477H77.8014C78.0746 32.9477 78.2228 32.9933 78.1585 33.1997C77.8112 34.3169 77.2918 35.1262 75.1751 35.115C72.9559 35.1021 72.5046 32.9063 73.1536 30.6156C73.281 30.1615 73.1479 29.9642 72.9449 30.3237L71.3992 32.7727C71.3488 32.8363 71.2845 32.8874 71.2114 32.922C71.1383 32.9565 71.0583 32.9736 70.9775 32.9718L70.7598 32.9705C70.7404 32.9705 70.7211 32.9743 70.7032 32.9818C70.6852 32.9893 70.6689 33.0004 70.6552 33.0142C70.6414 33.0281 70.6305 33.0446 70.6231 33.0627C70.6157 33.0808 70.6118 33.1002 70.6118 33.1198C70.6118 33.1394 70.6157 33.1589 70.6231 33.177C70.6305 33.1951 70.6414 33.2116 70.6552 33.2254C70.6689 33.2393 70.6852 33.2503 70.7032 33.2578C70.7211 33.2653 70.7404 33.2692 70.7598 33.2692C70.9552 33.2692 71.0317 33.3749 70.9552 33.4847L70.3913 34.3753C69.4555 32.2208 67.8918 29.567 67.0586 28.6016L67.0733 28.5549C69.1321 28.4284 72.167 26.4833 72.666 24.7437C73.5281 21.7265 70.6241 20.6116 69.0402 20.6116L62.0833 20.6129C61.1585 20.6129 61.0907 21.321 61.9776 21.321C62.4574 21.321 62.8766 21.7438 62.6652 22.1719L61.1247 24.9745C60.9973 25.2043 60.5178 25.1902 59.8969 25.1902H59.2223C59.2022 25.1894 59.1822 25.1927 59.1635 25.1999C59.1447 25.2071 59.1276 25.2181 59.1132 25.2321C59.0987 25.2462 59.0872 25.263 59.0794 25.2816C59.0715 25.3003 59.0675 25.3203 59.0675 25.3405C59.0675 25.3608 59.0715 25.3808 59.0794 25.3994C59.0872 25.4181 59.0987 25.4349 59.1132 25.4489C59.1276 25.463 59.1447 25.4739 59.1635 25.4811C59.1822 25.4883 59.2022 25.4917 59.2223 25.4909H59.8857C60.3295 25.4909 60.8184 25.5166 60.6531 25.8376L58.8311 29.1566C58.7434 29.3114 58.5066 29.3236 57.8883 29.3236H57.2165C57.1768 29.3236 57.1387 29.3395 57.1106 29.3679C57.0826 29.3962 57.0668 29.4347 57.0668 29.4747C57.0668 29.5148 57.0826 29.5533 57.1106 29.5816C57.1387 29.6099 57.1768 29.6259 57.2165 29.6259H57.8712C58.3615 29.6259 58.543 29.6922 58.4025 29.9454L55.9688 34.3883C55.6783 34.7063 55.3329 34.7669 54.7381 34.7669C53.8508 34.7669 53.8598 35.4767 54.7859 35.4767H60.7434C61.6691 35.4767 61.4343 34.7543 60.8862 34.7543C60.5678 34.7543 60.2284 34.1593 60.442 33.8029L63.4841 27.9892H63.7935C65.1456 27.9892 65.4734 30.2295 65.7266 32.6738C65.7457 32.8508 65.416 32.8567 64.74 32.8567L63.0496 32.8625C63.0301 32.8624 63.0108 32.8661 62.9929 32.8736C62.9749 32.881 62.9585 32.892 62.9447 32.9058C62.9309 32.9197 62.92 32.9361 62.9126 32.9542C62.9051 32.9724 62.9013 32.9918 62.9013 33.0114C62.9015 33.051 62.9172 33.089 62.9449 33.117C62.9727 33.145 63.0103 33.1608 63.0496 33.161H64.7207C65.1667 33.161 65.7872 33.1656 65.8034 33.3075C65.8802 34.2749 66.0165 35.2366 66.2114 36.187C66.2743 36.4547 65.7997 36.4122 65.293 36.4122L63.1388 36.4144C63.1188 36.4137 63.0989 36.417 63.0802 36.4242C63.0615 36.4313 63.0444 36.4423 63.03 36.4563C63.0156 36.4702 63.0041 36.487 62.9963 36.5056C62.9885 36.5242 62.9844 36.5442 62.9844 36.5643C62.9844 36.5845 62.9885 36.6045 62.9963 36.6231C63.0041 36.6417 63.0156 36.6584 63.03 36.6724C63.0444 36.6864 63.0615 36.6974 63.0802 36.7045C63.0989 36.7117 63.1188 36.715 63.1388 36.7143L65.2905 36.7167C65.9667 36.7167 66.3162 36.7167 66.3544 36.8561C67.2803 40.2857 71.2549 42.9866 75.119 42.8375C78.4359 42.7105 81.2382 40.8904 82.6697 39.7294C84.58 38.1843 87.3808 34.9488 88.5237 32.5974C88.7292 32.1664 89.0668 31.6132 88.9888 31.23M66.6968 26.6649C66.2318 27.0479 65.5002 27.4927 65.3581 27.3508C65.0089 27.0452 64.6246 26.7831 64.2134 26.5702L66.9759 21.4765C67.0303 21.3812 67.1113 21.3042 67.2088 21.255C67.3063 21.2058 67.4159 21.1867 67.5241 21.1999C68.5984 21.1999 68.9492 22.3757 68.4449 23.8409C68.0906 24.8676 67.5168 25.9805 66.6957 26.664" fill="#552582"/>
</g>
<mask id="mask3_15_14" style="mask-type:luminance" maskUnits="userSpaceOnUse" x="15" y="0" width="54" height="56">
<path d="M42.0098 55.3409C56.7552 55.3409 68.7081 43.0964 68.7081 27.9909C68.7081 12.8855 56.7552 0.642776 42.0098 0.642776C27.2679 0.642776 15.3148 12.8884 15.3148 27.9909C15.3148 43.0935 27.2679 55.3409 42.0098 55.3409Z" fill="white"/>
</mask>
<g mask="url(#mask3_15_14)">
<path d="M33.1445 16.0861C32.5841 16.8163 31.8432 17.0019 31.0125 17.0019H30.7783L32.2438 14.0735C32.2852 13.9991 32.3457 13.9374 32.4191 13.8951C32.4925 13.8528 32.5759 13.8314 32.6604 13.8332C32.8437 13.8332 32.8202 13.4637 32.5808 13.4637H30.2694C30.0721 13.4637 30.0046 13.8332 30.1877 13.8332C30.385 13.8332 30.4201 14.0544 30.3262 14.2401L29.0138 16.8503C28.916 16.9734 28.7743 17.0528 28.6191 17.0716C28.4238 17.1218 28.2902 17.4736 28.5106 17.4736H32.1991C32.2827 17.4856 32.368 17.4721 32.4441 17.435C32.5201 17.3979 32.5835 17.3388 32.6262 17.2652L33.3686 16.1053C33.4749 15.9664 33.2511 15.9465 33.1443 16.0865" fill="#552582"/>
</g>
<mask id="mask4_15_14" style="mask-type:luminance" maskUnits="userSpaceOnUse" x="15" y="0" width="54" height="56">
<path d="M42.0098 55.3409C56.7552 55.3409 68.7081 43.0964 68.7081 27.9909C68.7081 12.8855 56.7552 0.642776 42.0098 0.642776C27.2679 0.642776 15.3148 12.8884 15.3148 27.9909C15.3148 43.0935 27.2679 55.3409 42.0098 55.3409Z" fill="white"/>
</mask>
<g mask="url(#mask4_15_14)">
<path d="M44.255 13.567C44.1788 13.6063 44.0943 13.6265 44.0088 13.6261C43.9232 13.6257 43.839 13.6046 43.7632 13.5646C43.4192 13.3119 43.0122 13.161 42.588 13.1287C41.7191 13.1287 41.0894 13.3019 40.7105 14.1297C40.3889 14.8377 40.7191 15.4278 41.4851 15.7849C41.8175 15.9398 42.2578 16.1436 42.0892 16.5456C41.9662 16.8421 41.6259 16.8718 41.3189 16.8707C40.9076 16.8654 40.2884 16.553 40.1924 15.9668C40.1595 15.7754 39.939 15.8203 39.8756 15.9226L39.3494 16.9784C39.2672 17.1183 39.4842 17.2736 39.5699 17.1822C39.6692 17.0888 39.7943 17.0282 39.9286 17.0084C40.0629 16.9886 40.2 17.0107 40.3216 17.0716C40.5847 17.2473 41.2582 17.5559 41.6561 17.5517C42.538 17.5451 43.1201 17.3174 43.6036 16.5534C44.0438 15.8577 43.773 15.1676 42.9677 14.7833C42.5424 14.5841 42.1784 14.2253 42.3683 13.8319C42.4937 13.5765 42.8702 13.6314 43.0578 13.663C43.4181 13.7252 43.8781 14.0664 43.9313 14.3664C43.9366 14.3946 43.9504 14.4205 43.9709 14.4404C43.9914 14.4603 44.0175 14.4733 44.0456 14.4776C44.0737 14.4819 44.1024 14.4772 44.1278 14.4643C44.1532 14.4513 44.1739 14.4307 44.1872 14.4054L44.4635 13.7535C44.5271 13.6276 44.3234 13.5292 44.2536 13.5661" fill="#552582"/>
</g>
<mask id="mask5_15_14" style="mask-type:luminance" maskUnits="userSpaceOnUse" x="15" y="0" width="54" height="56">
<path d="M42.0098 55.3409C56.7552 55.3409 68.7081 43.0964 68.7081 27.9909C68.7081 12.8855 56.7552 0.642776 42.0098 0.642776C27.2679 0.642776 15.3148 12.8884 15.3148 27.9909C15.3148 43.0935 27.2679 55.3409 42.0098 55.3409Z" fill="white"/>
</mask>
<g mask="url(#mask5_15_14)">
<path d="M69.8478 14.6162L70.1703 14.0188C70.311 13.7562 70.0813 13.4572 69.7131 13.4572H65.4068C65.0972 13.4572 65.1856 13.7832 65.3125 13.7832C65.5892 13.7832 65.671 14.1244 65.5033 14.4129L64.2097 16.8156C64.148 16.9181 64.0607 17.0025 63.9566 17.0604C63.8525 17.1183 63.7352 17.1476 63.6164 17.1455C63.3943 17.1455 63.3147 17.4723 63.6256 17.4723H67.9905C68.0524 17.4787 68.1149 17.4678 68.1711 17.4407C68.2273 17.4137 68.275 17.3716 68.309 17.319L68.901 16.524C69.0453 16.3332 68.7333 16.3332 68.6379 16.4279C67.8857 17.188 67.079 17.1681 66.4936 17.1681H65.985L66.5807 15.8199H66.7109C67.0931 15.8199 67.5357 15.8146 67.6537 16.1106C67.6708 16.1338 67.6931 16.1525 67.7187 16.1655C67.7443 16.1784 67.7725 16.1851 67.8011 16.1851C67.8298 16.1851 67.858 16.1784 67.8836 16.1655C67.9092 16.1525 67.9314 16.1338 67.9486 16.1106L68.4577 15.0811C68.5406 14.9286 68.3119 14.9021 68.2481 15.0118C68.0488 15.3743 67.1623 15.2774 66.9326 15.2774H66.8032L67.5487 13.7949H68.3772C68.6158 13.7996 68.8478 13.875 69.0443 14.0116C69.2408 14.1483 69.3932 14.3402 69.4825 14.5636C69.5173 14.6591 69.7929 14.7364 69.8478 14.6145" fill="#552582"/>
</g>
<mask id="mask6_15_14" style="mask-type:luminance" maskUnits="userSpaceOnUse" x="15" y="0" width="54" height="56">
<path d="M42.0098 55.3409C56.7552 55.3409 68.7081 43.0964 68.7081 27.9909C68.7081 12.8855 56.7552 0.642776 42.0098 0.642776C27.2679 0.642776 15.3148 12.8884 15.3148 27.9909C15.3148 43.0935 27.2679 55.3409 42.0098 55.3409Z" fill="white"/>
</mask>
<g mask="url(#mask6_15_14)">
<path d="M58.8296 13.4581H57.2972C56.9868 13.4581 57.0795 13.7841 57.2043 13.7841C57.2899 13.7876 57.3733 13.8125 57.4471 13.8565C57.5208 13.9005 57.5826 13.9623 57.6269 14.0363C57.6712 14.1104 57.6967 14.1943 57.701 14.2807C57.7053 14.367 57.6883 14.4531 57.6516 14.5313L57.0157 15.704L55.6162 13.636C55.55 13.5706 55.4709 13.52 55.384 13.4874C55.2971 13.4549 55.2044 13.4411 55.1119 13.4471H53.6041C53.2943 13.4471 53.366 13.7723 53.4921 13.7723C53.812 13.7723 53.73 14.0139 53.6511 14.1863L52.4487 16.5209C52.4231 16.5673 52.3851 16.6057 52.3391 16.6315C52.293 16.6573 52.2407 16.6697 52.1881 16.6671C52.1355 16.6646 52.0846 16.6472 52.0412 16.617C51.9979 16.5869 51.9637 16.545 51.9426 16.4963L51.0154 13.4376C50.9768 13.3167 50.4326 13.3236 50.2938 13.4376L47.9641 15.3774H46.7549C46.5168 15.3774 46.421 15.4789 46.421 15.6064C46.421 15.7338 46.5122 15.8526 46.7637 15.8526L47.3944 15.8504L46.7637 16.3766C46.4144 16.6381 46.0559 17.0026 45.8141 17.0026H45.6698C45.4407 17.0026 45.3111 17.0402 45.3111 17.2251C45.3111 17.4101 45.4087 17.4738 45.6244 17.4738H47.5041C47.8593 17.4738 47.7891 17.0074 47.6119 17.0074C47.5424 17.0083 47.4743 16.9873 47.417 16.9474C47.3598 16.9075 47.3162 16.8507 47.2923 16.7847C47.2684 16.7188 47.2654 16.647 47.2836 16.5792C47.3019 16.5115 47.3405 16.4511 47.3942 16.4065L47.968 15.8533H49.0991C49.7698 15.8533 50.2393 16.6375 49.8389 16.8815L49.5302 17.0539C49.3842 17.1302 49.3206 17.4743 49.5302 17.4743H53.202C53.4767 17.4743 53.4202 17.1119 53.2928 17.1119C52.9183 17.1119 53.0955 16.5647 53.1683 16.4193L54.133 14.574L55.4897 17.2256C55.5774 17.392 55.6577 17.4743 55.8164 17.4743H56.3363C56.4996 17.4743 56.5555 17.378 56.6311 17.2504L58.1738 14.4359C58.4233 13.9327 58.6141 13.7887 58.927 13.7887C59.0532 13.7872 59.1423 13.4568 58.8303 13.4568M48.556 15.3754L49.9928 14.193L49.9994 15.3754H48.556Z" fill="#552582"/>
</g>
<mask id="mask7_15_14" style="mask-type:luminance" maskUnits="userSpaceOnUse" x="15" y="0" width="54" height="56">
<path d="M42.0098 55.3409C56.7552 55.3409 68.7081 43.0964 68.7081 27.9909C68.7081 12.8855 56.7552 0.642776 42.0098 0.642776C27.2679 0.642776 15.3148 12.8884 15.3148 27.9909C15.3148 43.0935 27.2679 55.3409 42.0098 55.3409Z" fill="white"/>
</mask>
<g mask="url(#mask7_15_14)">
<path d="M37.0709 13.2827C35.7788 13.2827 34.4488 13.9243 34.1818 15.2929C34.1199 15.5923 34.1264 15.902 34.2007 16.1986C34.2751 16.4951 34.4154 16.7707 34.6109 17.0044C34.8065 17.2381 35.0522 17.4238 35.3295 17.5474C35.6068 17.6711 35.9083 17.7294 36.2112 17.7179C37.5835 17.7179 38.8514 16.8107 39.1053 15.4975C39.3605 14.1777 38.387 13.2825 37.0702 13.2825M37.4372 15.7907C37.0259 16.6138 36.341 17.1063 35.9025 16.8846C35.464 16.6629 35.4458 15.8155 35.856 14.9906C36.2662 14.1657 36.9501 13.675 37.3877 13.8967C37.8253 14.1184 37.8444 14.966 37.4366 15.7907" fill="#552582"/>
</g>
<mask id="mask8_15_14" style="mask-type:luminance" maskUnits="userSpaceOnUse" x="15" y="0" width="54" height="56">
<path d="M42.0098 55.3409C56.7552 55.3409 68.7081 43.0964 68.7081 27.9909C68.7081 12.8855 56.7552 0.642776 42.0098 0.642776C27.2679 0.642776 15.3148 12.8884 15.3148 27.9909C15.3148 43.0935 27.2679 55.3409 42.0098 55.3409Z" fill="white"/>
</mask>
<g mask="url(#mask8_15_14)">
<path d="M63.1969 15.2785H61.5385C61.2287 15.2785 61.3192 15.6059 61.4442 15.6059C61.5757 15.6059 61.6981 15.6752 61.6981 15.8872C61.6981 16.5638 61.4144 16.824 60.836 16.824C60.2052 16.824 59.9763 16.0496 60.4027 15.1017C60.5725 14.7536 60.8344 14.4598 61.1595 14.2528C61.4846 14.0458 61.8601 13.9337 62.2445 13.929C62.7689 13.929 63.2092 14.0429 63.2734 14.5375C63.2894 14.6591 63.4707 14.6591 63.5324 14.5441L63.9281 13.8312C63.972 13.7551 63.9031 13.6648 63.783 13.6568C63.6821 13.6502 63.4541 13.7823 63.3065 13.6712C62.8261 13.3659 62.2735 13.196 61.706 13.1793C60.8136 13.1793 59.5687 13.3827 58.7289 14.8561C57.9703 16.1879 59.0765 17.5953 60.1037 17.5966C60.6737 17.5989 61.3359 17.1727 61.7147 17.0105L62.1392 17.3024C62.179 17.3508 62.2278 17.3908 62.2829 17.4202C62.3381 17.4495 62.3984 17.4676 62.4604 17.4734H62.6178C62.7654 17.4734 62.822 17.2743 62.8792 17.1453L63.5291 15.5535C63.6128 15.3944 63.5668 15.2791 63.198 15.2791" fill="#552582"/>
</g>
<path d="M62.9959 10.2795C62.6648 9.89379 62.2066 9.0749 58.9241 6.18608C54.0926 1.93849 47.6933 0 41.6816 0C37.2516 0 33.3719 1.00431 29.0761 3.38998C23.6035 6.43058 21.3364 9.92499 20.7769 10.6366C20.3616 11.1585 20.3026 11.4641 20.5708 11.6216C20.7624 11.7323 21.131 11.3249 21.4754 10.8667C23.1034 8.69676 25.2437 6.54431 27.4974 5.27824C28.199 5.38135 29.1787 6.36685 29.5584 6.88904C28.1188 7.68204 25.7278 9.51986 24.8225 10.227C24.0413 10.8373 23.7712 11.1807 23.9826 11.4289C24.1593 11.6349 24.7563 11.2298 25.2571 10.816C26.1221 10.0982 28.6941 8.25888 29.9669 7.56765C30.8338 8.59099 30.554 10.4815 30.2482 10.8921C30.0833 11.1134 30.0587 11.3464 30.2482 11.4548C30.4236 11.5566 30.6209 11.297 30.8722 10.9291C31.4611 10.0686 31.225 7.98628 30.7187 7.23531C32.271 6.26175 34.4999 5.61213 35.8505 5.30479C35.9648 5.52273 37.6017 10.3469 37.9133 11.2234C38.0825 11.7028 38.2522 12.277 38.5993 12.1697C38.8324 12.0993 38.6785 11.5723 38.4855 11.0455C38.2461 10.3912 37.0078 6.33831 36.6276 5.13774C37.0731 4.89435 39.7611 4.3434 40.4336 4.37106C40.1047 6.13519 41.342 6.85762 42.7382 7.78493C43.4836 8.27724 48.2055 11.0167 49.1941 11.632C49.7569 11.9847 50.1945 12.2073 50.3138 12.0423C50.4537 11.852 50.0711 11.4539 49.5506 11.1464C49.1351 10.9014 44.7404 8.32858 42.9041 7.15743C41.5886 6.3195 40.8813 5.42118 41.1962 4.24206C41.6296 4.11484 42.9539 4.10466 44.3302 4.11484C53.7008 4.19206 61.2151 9.61212 62.0544 10.481C62.4808 10.9222 63.0733 11.2997 63.3022 11.1227C63.4469 11.0101 63.1967 10.5118 62.9952 10.2799M30.3249 6.54453C30.073 6.1186 28.8818 5.02157 28.2376 4.80584C29.7406 3.6805 33.2289 2.07257 34.5532 1.78847C34.9628 2.66671 35.3113 3.57269 35.596 4.49983C34.4254 4.75495 31.3179 5.87941 30.3249 6.54453ZM40.5608 3.50127C39.1334 3.65173 37.7202 3.91706 36.3347 4.29472C36.1305 3.75882 35.5719 2.09426 35.3934 1.5588C37.6295 0.935163 39.9547 0.701543 42.2687 0.868016C41.7075 1.30169 40.7671 3.0156 40.561 3.50105M46.6475 3.42472C44.6145 3.28067 42.955 3.22204 41.5027 3.37449C41.9029 2.37935 42.5639 1.51284 43.4148 0.867795C44.7404 0.931167 46.0596 1.09388 47.3613 1.35457C50.9854 2.07567 56.6211 4.30645 59.0513 7.5942C55.8134 5.41476 50.4366 3.69798 46.6477 3.42516M65.0246 42.6547C65.3719 42.0113 65.6541 41.6451 65.3557 41.4778C65.0834 41.3267 64.8203 41.9219 64.4905 42.5001C63.3943 44.42 62.2 46.0024 59.4992 48.4841C56.5075 51.2349 53.0694 52.8322 51.8714 53.2413C50.8538 50.3514 46.9706 38.0454 46.8676 37.6938C46.7159 37.168 46.5854 37.0183 46.4096 37.0791C46.2122 37.151 46.3337 37.44 46.4357 37.8978C46.5376 38.3556 51.1604 52.9229 51.3123 53.4336C50.3934 53.8922 46.6707 54.9446 44.0671 55.0291C41.7482 55.107 39.0242 55.0291 37.6491 54.7094C36.0367 53.3964 32.3708 48.1719 30.9781 45.3889C29.3389 42.1126 28.2528 39.0984 27.973 37.8175C27.8384 37.2052 27.666 36.7634 27.3611 36.8242C27.0333 36.8873 27.2218 37.3703 27.4135 38.0274C28.1794 40.6099 29.1855 43.1135 30.4185 45.5048C32.2285 49.1114 35.4596 53.3413 36.4017 54.4932C32.797 53.7027 29.4033 52.1377 26.4516 49.9049C23.5136 47.6978 20.9922 44.8822 19.7205 42.8326C19.5045 42.4801 19.2476 41.983 18.9325 42.1938C18.7909 42.2879 18.9654 42.6888 19.1862 43.0879C21.0295 46.429 25.5241 51.1574 31.2831 53.7515C37.9946 56.7762 45.3131 56.6149 51.858 54.058C57.5827 51.821 62.5628 47.2187 65.0237 42.6541" fill="#231F20"/>
</g>
<defs>
<clipPath id="clip0_15_14">
<rect width="89" height="56" fill="white"/>
</clipPath>
</defs>
</svg>
